<svg xmlns="http://www.w3.org/2000/svg" xmlns:xlink="http://www.w3.org/1999/xlink" width="500" zoomAndPan="magnify" viewBox="0 0 375 374.999991" height="500" preserveAspectRatio="xMidYMid meet" version="1.0"><defs><g/></defs><g fill="#b27330" fill-opacity="1"><g transform="translate(72.523092, 188.720807)"><g><path d="M 43.46875 -21.203125 C 43.46875 -20.097656 43.410156 -18.78125 43.296875 -17.25 C 43.179688 -15.71875 43.015625 -13.960938 42.796875 -11.984375 C 42.390625 -8.097656 41.914062 -5.035156 41.375 -2.796875 C 41.53125 -2.859375 41.65625 -2.921875 41.75 -2.984375 C 41.851562 -3.046875 41.984375 -3.140625 42.140625 -3.265625 C 42.328125 -3.453125 42.515625 -3.546875 42.703125 -3.546875 C 43.046875 -3.546875 43.21875 -3.421875 43.21875 -3.171875 C 43.21875 -2.984375 42.539062 -2.367188 41.1875 -1.328125 L 40.90625 1.234375 C 40.875 1.484375 40.796875 1.691406 40.671875 1.859375 C 40.546875 2.035156 40.367188 2.222656 40.140625 2.421875 C 39.796875 2.671875 39.40625 2.84375 38.96875 2.9375 C 38.738281 2.9375 38.625 2.664062 38.625 2.125 C 38.625 1.78125 38.632812 1.382812 38.65625 0.9375 C 38.675781 0.5 38.734375 0.015625 38.828125 -0.515625 C 35.441406 0.929688 32.472656 1.65625 29.921875 1.65625 C 28.242188 1.65625 25.226562 0.800781 20.875 -0.90625 C 16.519531 -2.601562 13.773438 -3.453125 12.640625 -3.453125 C 10.085938 -3.453125 7.546875 -2.992188 5.015625 -2.078125 C 4.003906 -1.703125 2.96875 -1.238281 1.90625 -0.6875 C 0.851562 -0.132812 -0.300781 0.535156 -1.5625 1.328125 L -7.578125 5.203125 C -7.859375 5.359375 -8.332031 5.472656 -9 5.546875 C -9.40625 5.546875 -9.609375 5.351562 -9.609375 4.96875 C -9.609375 4.96875 -9.023438 4.703125 -7.859375 4.171875 C -6.847656 3.628906 -5.597656 2.859375 -4.109375 1.859375 C -2.628906 0.867188 -0.894531 -0.394531 1.09375 -1.9375 C 2.226562 -2.789062 3.707031 -4.066406 5.53125 -5.765625 C 7.363281 -7.472656 9.578125 -9.609375 12.171875 -12.171875 C 14.628906 -14.628906 16.851562 -16.890625 18.84375 -18.953125 C 20.832031 -21.023438 22.628906 -22.960938 24.234375 -24.765625 C 28.117188 -29.179688 32.019531 -31.390625 35.9375 -31.390625 C 38.800781 -31.390625 40.867188 -30.160156 42.140625 -27.703125 C 42.578125 -26.878906 42.898438 -25.929688 43.109375 -24.859375 C 43.316406 -23.785156 43.4375 -22.566406 43.46875 -21.203125 Z M 41 -20.21875 C 41 -26.5625 38.960938 -29.734375 34.890625 -29.734375 C 32.460938 -29.734375 29.796875 -28.46875 26.890625 -25.9375 C 26.390625 -25.53125 23.613281 -22.753906 18.5625 -17.609375 L 10.328125 -9.1875 C 8.867188 -7.757812 7.394531 -6.390625 5.90625 -5.078125 C 4.425781 -3.773438 2.929688 -2.523438 1.421875 -1.328125 C 2.960938 -1.984375 4.226562 -2.515625 5.21875 -2.921875 C 6.21875 -3.335938 6.957031 -3.625 7.4375 -3.78125 C 9.070312 -4.257812 10.992188 -4.5 13.203125 -4.5 C 14.367188 -4.5 15.84375 -4.304688 17.625 -3.921875 C 19.414062 -3.546875 21.523438 -2.929688 23.953125 -2.078125 C 26.378906 -1.328125 28.25 -0.757812 29.5625 -0.375 C 30.875 0 31.65625 0.21875 31.90625 0.28125 C 33.070312 0.28125 34.414062 0.015625 35.9375 -0.515625 C 36.46875 -0.710938 36.984375 -0.910156 37.484375 -1.109375 C 37.992188 -1.316406 38.519531 -1.546875 39.0625 -1.796875 L 40.296875 -11.828125 C 40.765625 -15.804688 41 -18.601562 41 -20.21875 Z M 41 -20.21875 "/></g></g></g><g fill="#b27330" fill-opacity="1"><g transform="translate(121.757524, 188.720807)"><g><path d="M 20.828125 -7.765625 C 20.828125 -7.578125 20.75 -7.40625 20.59375 -7.25 C 13.71875 -1.4375 8.890625 1.46875 6.109375 1.46875 C 4.617188 1.46875 3.734375 0.238281 3.453125 -2.21875 C 2.628906 -1.3125 1.414062 -0.476562 -0.1875 0.28125 C -1.414062 0.820312 -2.316406 1.109375 -2.890625 1.140625 C -3.390625 1.140625 -3.847656 0.914062 -4.265625 0.46875 C -4.703125 0.09375 -4.9375 -0.394531 -4.96875 -1 C -4.96875 -2.070312 -4.492188 -3.128906 -3.546875 -4.171875 C -3.078125 -4.609375 -2.382812 -5.164062 -1.46875 -5.84375 C -0.550781 -6.519531 0.613281 -7.316406 2.03125 -8.234375 C 2.320312 -8.234375 2.414062 -8.015625 2.3125 -7.578125 C 1.90625 -7.328125 1.492188 -7.050781 1.078125 -6.75 C 0.671875 -6.445312 0.25 -6.140625 -0.1875 -5.828125 C -1.707031 -4.492188 -2.484375 -3.289062 -2.515625 -2.21875 C -2.515625 -1.238281 -2.226562 -0.703125 -1.65625 -0.609375 C -1.34375 -0.609375 -0.726562 -0.832031 0.1875 -1.28125 C 0.757812 -1.53125 1.265625 -1.789062 1.703125 -2.0625 C 2.140625 -2.332031 2.535156 -2.59375 2.890625 -2.84375 C 3.546875 -3.3125 4.585938 -4.492188 6.015625 -6.390625 C 7.148438 -7.835938 7.96875 -8.5625 8.46875 -8.5625 C 8.851562 -8.5625 9.0625 -8.390625 9.09375 -8.046875 C 9.09375 -7.890625 8.945312 -7.632812 8.65625 -7.28125 C 8.375 -6.9375 7.921875 -6.46875 7.296875 -5.875 C 6.160156 -4.800781 5.59375 -3.882812 5.59375 -3.125 C 5.59375 -2.394531 5.8125 -1.765625 6.25 -1.234375 C 6.59375 -0.691406 7.019531 -0.390625 7.53125 -0.328125 C 8.882812 -0.328125 11.0625 -1.335938 14.0625 -3.359375 L 20.3125 -8 C 20.40625 -8.03125 20.5 -8.046875 20.59375 -8.046875 C 20.71875 -8.046875 20.796875 -7.953125 20.828125 -7.765625 Z M 20.828125 -7.765625 "/></g></g></g><g fill="#b27330" fill-opacity="1"><g transform="translate(140.504479, 188.720807)"><g><path d="M 19.40625 -7.859375 C 19.40625 -7.765625 19.394531 -7.675781 19.375 -7.59375 C 19.363281 -7.519531 19.3125 -7.4375 19.21875 -7.34375 C 17.582031 -5.976562 16.175781 -4.832031 15 -3.90625 C 13.832031 -2.976562 12.90625 -2.289062 12.21875 -1.84375 C 8.84375 0.425781 5.875 1.5625 3.3125 1.5625 C 2.675781 1.5625 2.0625 1.289062 1.46875 0.75 C 0.957031 0.25 0.671875 -0.378906 0.609375 -1.140625 C 0.609375 -1.765625 1.050781 -2.582031 1.9375 -3.59375 C 2.351562 -4.039062 2.753906 -4.476562 3.140625 -4.90625 C 3.535156 -5.332031 3.941406 -5.78125 4.359375 -6.25 C 4.035156 -6.25 3.707031 -6.222656 3.375 -6.171875 C 3.050781 -6.128906 2.679688 -6.078125 2.265625 -6.015625 C 1.515625 -5.921875 0.914062 -5.875 0.46875 -5.875 L 0.28125 -5.875 C -3.21875 -2.90625 -6.101562 -0.929688 -8.375 0.046875 C -8.914062 0.046875 -9.1875 -0.03125 -9.1875 -0.1875 C -9.1875 -0.4375 -9.046875 -0.722656 -8.765625 -1.046875 C -7.847656 -1.390625 -6.71875 -1.988281 -5.375 -2.84375 C -4.03125 -3.695312 -2.441406 -4.832031 -0.609375 -6.25 C -0.835938 -6.46875 -0.96875 -6.703125 -1 -6.953125 C -1 -7.554688 -0.460938 -8.441406 0.609375 -9.609375 C 1.148438 -10.179688 1.640625 -10.597656 2.078125 -10.859375 C 2.523438 -11.128906 2.921875 -11.296875 3.265625 -11.359375 C 3.773438 -11.359375 4.078125 -11.125 4.171875 -10.65625 C 4.171875 -9.894531 3.632812 -9.023438 2.5625 -8.046875 C 3.21875 -8.203125 3.765625 -8.3125 4.203125 -8.375 C 4.648438 -8.4375 4.984375 -8.484375 5.203125 -8.515625 C 6.148438 -8.515625 6.625 -8.1875 6.625 -7.53125 C 6.625 -6.769531 5.945312 -5.773438 4.59375 -4.546875 C 3.332031 -3.378906 2.65625 -2.414062 2.5625 -1.65625 C 2.5625 -1.25 2.734375 -0.835938 3.078125 -0.421875 C 3.390625 -0.140625 3.832031 0.046875 4.40625 0.140625 C 6.269531 0.140625 8.921875 -0.976562 12.359375 -3.21875 C 12.765625 -3.46875 13.507812 -3.988281 14.59375 -4.78125 C 15.6875 -5.570312 17.132812 -6.675781 18.9375 -8.09375 L 19.21875 -8.09375 C 19.34375 -8.09375 19.40625 -8.015625 19.40625 -7.859375 Z M 19.40625 -7.859375 "/></g></g></g><g fill="#b27330" fill-opacity="1"><g transform="translate(157.87855, 188.720807)"><g><path d="M 16.328125 -7.765625 C 16.328125 -7.671875 16.316406 -7.582031 16.296875 -7.5 C 16.285156 -7.425781 16.234375 -7.328125 16.140625 -7.203125 C 15.003906 -5.804688 13.269531 -4.320312 10.9375 -2.75 C 9.675781 -1.832031 8.570312 -1.148438 7.625 -0.703125 C 6.675781 -0.265625 5.882812 -0.03125 5.25 0 C 4.363281 0 3.609375 -0.300781 2.984375 -0.90625 C 2.703125 -0.519531 1.976562 0 0.8125 0.65625 C -0.550781 1.382812 -1.816406 1.75 -2.984375 1.75 C -4.617188 1.75 -5.4375 1.101562 -5.4375 -0.1875 C -5.4375 -1.039062 -5.117188 -1.929688 -4.484375 -2.859375 C -3.859375 -3.796875 -2.945312 -4.800781 -1.75 -5.875 C -0.582031 -6.882812 0.507812 -7.625 1.53125 -8.09375 C 2.5625 -8.570312 3.488281 -8.8125 4.3125 -8.8125 C 5.914062 -8.8125 6.71875 -8.050781 6.71875 -6.53125 C 6.71875 -4.863281 5.769531 -3.222656 3.875 -1.609375 C 4.289062 -1.203125 4.796875 -1 5.390625 -1 C 6.460938 -1 8.21875 -1.863281 10.65625 -3.59375 C 11.695312 -4.320312 12.648438 -5.046875 13.515625 -5.765625 C 14.378906 -6.492188 15.160156 -7.222656 15.859375 -7.953125 C 15.890625 -8.046875 15.984375 -8.0625 16.140625 -8 C 16.265625 -8 16.328125 -7.921875 16.328125 -7.765625 Z M 6.0625 -6.90625 C 6.0625 -7.414062 5.773438 -7.703125 5.203125 -7.765625 C 4.484375 -7.765625 3.851562 -7.445312 3.3125 -6.8125 C 2.84375 -6.25 2.578125 -5.570312 2.515625 -4.78125 C 2.515625 -3.613281 2.71875 -2.84375 3.125 -2.46875 C 5.019531 -3.945312 6 -5.425781 6.0625 -6.90625 Z M 2.421875 -1.703125 C 1.785156 -2.335938 1.46875 -3.160156 1.46875 -4.171875 C 1.46875 -5.523438 1.75 -6.484375 2.3125 -7.046875 C -1.4375 -5.316406 -3.3125 -3.503906 -3.3125 -1.609375 C -3.3125 -0.441406 -2.851562 0.140625 -1.9375 0.140625 C -0.550781 0.140625 0.898438 -0.472656 2.421875 -1.703125 Z M 2.421875 -1.703125 "/></g></g></g><g fill="#b27330" fill-opacity="1"><g transform="translate(172.175478, 188.720807)"><g><path d="M 19.40625 -7.859375 C 19.40625 -7.765625 19.394531 -7.675781 19.375 -7.59375 C 19.363281 -7.519531 19.3125 -7.4375 19.21875 -7.34375 C 17.582031 -5.976562 16.175781 -4.832031 15 -3.90625 C 13.832031 -2.976562 12.90625 -2.289062 12.21875 -1.84375 C 8.84375 0.425781 5.875 1.5625 3.3125 1.5625 C 2.675781 1.5625 2.0625 1.289062 1.46875 0.75 C 0.957031 0.25 0.671875 -0.378906 0.609375 -1.140625 C 0.609375 -1.765625 1.050781 -2.582031 1.9375 -3.59375 C 2.351562 -4.039062 2.753906 -4.476562 3.140625 -4.90625 C 3.535156 -5.332031 3.941406 -5.78125 4.359375 -6.25 C 4.035156 -6.25 3.707031 -6.222656 3.375 -6.171875 C 3.050781 -6.128906 2.679688 -6.078125 2.265625 -6.015625 C 1.515625 -5.921875 0.914062 -5.875 0.46875 -5.875 L 0.28125 -5.875 C -3.21875 -2.90625 -6.101562 -0.929688 -8.375 0.046875 C -8.914062 0.046875 -9.1875 -0.03125 -9.1875 -0.1875 C -9.1875 -0.4375 -9.046875 -0.722656 -8.765625 -1.046875 C -7.847656 -1.390625 -6.71875 -1.988281 -5.375 -2.84375 C -4.03125 -3.695312 -2.441406 -4.832031 -0.609375 -6.25 C -0.835938 -6.46875 -0.96875 -6.703125 -1 -6.953125 C -1 -7.554688 -0.460938 -8.441406 0.609375 -9.609375 C 1.148438 -10.179688 1.640625 -10.597656 2.078125 -10.859375 C 2.523438 -11.128906 2.921875 -11.296875 3.265625 -11.359375 C 3.773438 -11.359375 4.078125 -11.125 4.171875 -10.65625 C 4.171875 -9.894531 3.632812 -9.023438 2.5625 -8.046875 C 3.21875 -8.203125 3.765625 -8.3125 4.203125 -8.375 C 4.648438 -8.4375 4.984375 -8.484375 5.203125 -8.515625 C 6.148438 -8.515625 6.625 -8.1875 6.625 -7.53125 C 6.625 -6.769531 5.945312 -5.773438 4.59375 -4.546875 C 3.332031 -3.378906 2.65625 -2.414062 2.5625 -1.65625 C 2.5625 -1.25 2.734375 -0.835938 3.078125 -0.421875 C 3.390625 -0.140625 3.832031 0.046875 4.40625 0.140625 C 6.269531 0.140625 8.921875 -0.976562 12.359375 -3.21875 C 12.765625 -3.46875 13.507812 -3.988281 14.59375 -4.78125 C 15.6875 -5.570312 17.132812 -6.675781 18.9375 -8.09375 L 19.21875 -8.09375 C 19.34375 -8.09375 19.40625 -8.015625 19.40625 -7.859375 Z M 19.40625 -7.859375 "/></g></g></g><g fill="#b27330" fill-opacity="1"><g transform="translate(189.549549, 188.720807)"><g><path d="M 21.546875 -7.8125 C 21.546875 -7.5625 21.484375 -7.390625 21.359375 -7.296875 C 19.742188 -5.898438 18.367188 -4.753906 17.234375 -3.859375 C 16.097656 -2.960938 15.195312 -2.289062 14.53125 -1.84375 C 12.925781 -0.769531 11.472656 0.0390625 10.171875 0.59375 C 8.878906 1.144531 7.710938 1.421875 6.671875 1.421875 C 4.972656 1.421875 4.078125 0.140625 3.984375 -2.421875 C 3.222656 -1.785156 2.128906 -1.101562 0.703125 -0.375 C -0.648438 0.34375 -1.785156 0.703125 -2.703125 0.703125 C -3.328125 0.703125 -3.910156 0.546875 -4.453125 0.234375 C -4.984375 -0.015625 -5.25 -0.394531 -5.25 -0.90625 C -5.25 -2.320312 -3.972656 -4.023438 -1.421875 -6.015625 C -0.0976562 -6.992188 1.117188 -7.734375 2.234375 -8.234375 C 3.359375 -8.742188 4.410156 -9 5.390625 -9 C 6.566406 -9 7.171875 -8.710938 7.203125 -8.140625 C 7.203125 -7.515625 7.007812 -7.054688 6.625 -6.765625 C 6.25 -6.484375 5.835938 -6.34375 5.390625 -6.34375 C 5.390625 -6.375 5.375 -6.4375 5.34375 -6.53125 C 5.3125 -6.59375 5.28125 -6.660156 5.25 -6.734375 C 5.21875 -6.816406 5.171875 -6.921875 5.109375 -7.046875 C 4.921875 -7.492188 4.546875 -7.75 3.984375 -7.8125 C 2.710938 -7.8125 1.289062 -7.117188 -0.28125 -5.734375 C -1.894531 -4.398438 -2.703125 -3.195312 -2.703125 -2.125 C -2.703125 -1.46875 -2.460938 -1.125 -1.984375 -1.09375 C -0.316406 -1.09375 1.460938 -1.738281 3.359375 -3.03125 C 3.773438 -3.3125 4.484375 -4.003906 5.484375 -5.109375 C 6.117188 -5.898438 6.65625 -6.265625 7.09375 -6.203125 C 7.507812 -6.203125 7.71875 -6.046875 7.71875 -5.734375 C 7.71875 -5.441406 7.445312 -4.820312 6.90625 -3.875 C 6.40625 -3 6.15625 -2.351562 6.15625 -1.9375 C 6.15625 -0.769531 6.738281 -0.171875 7.90625 -0.140625 C 9.320312 -0.140625 11.59375 -1.210938 14.71875 -3.359375 C 15.132812 -3.609375 15.863281 -4.113281 16.90625 -4.875 C 17.945312 -5.632812 19.332031 -6.660156 21.0625 -7.953125 C 21.125 -8.015625 21.222656 -8.046875 21.359375 -8.046875 C 21.484375 -8.046875 21.546875 -7.96875 21.546875 -7.8125 Z M 21.546875 -7.8125 "/></g></g></g><g fill="#b27330" fill-opacity="1"><g transform="translate(209.006621, 188.720807)"><g/></g></g><g fill="#b27330" fill-opacity="1"><g transform="translate(220.273738, 188.720807)"><g><path d="M 42.9375 -34.65625 C 42.9375 -31.125 40.804688 -27.648438 36.546875 -24.234375 C 32.503906 -20.953125 28.6875 -19.3125 25.09375 -19.3125 C 24.6875 -19.3125 24.210938 -19.421875 23.671875 -19.640625 C 23.003906 -19.929688 22.65625 -20.3125 22.625 -20.78125 C 22.625 -21.320312 22.878906 -21.84375 23.390625 -22.34375 C 23.640625 -22.59375 23.890625 -22.765625 24.140625 -22.859375 C 24.398438 -22.960938 24.65625 -23.03125 24.90625 -23.0625 C 25.0625 -22.550781 25.191406 -22.140625 25.296875 -21.828125 C 25.410156 -21.515625 25.5 -21.273438 25.5625 -21.109375 C 25.78125 -20.921875 26.144531 -20.8125 26.65625 -20.78125 C 27.757812 -20.78125 28.863281 -20.953125 29.96875 -21.296875 C 31.070312 -21.648438 32.207031 -22.222656 33.375 -23.015625 C 34.570312 -23.765625 35.585938 -24.445312 36.421875 -25.0625 C 37.265625 -25.675781 37.90625 -26.253906 38.34375 -26.796875 C 39.101562 -27.648438 39.664062 -28.597656 40.03125 -29.640625 C 40.394531 -30.679688 40.59375 -31.832031 40.625 -33.09375 C 40.625 -36.976562 38.207031 -38.921875 33.375 -38.921875 C 29.175781 -38.921875 24.695312 -37.578125 19.9375 -34.890625 C 17.5625 -33.535156 15.394531 -32.015625 13.4375 -30.328125 C 11.488281 -28.640625 9.722656 -26.753906 8.140625 -24.671875 C 4.765625 -20.054688 3.0625 -15.398438 3.03125 -10.703125 C 3.03125 -7.128906 4.148438 -4.300781 6.390625 -2.21875 C 8.628906 -0.300781 11.738281 0.707031 15.71875 0.8125 C 16.820312 0.8125 18.007812 0.675781 19.28125 0.40625 C 20.5625 0.132812 21.960938 -0.300781 23.484375 -0.90625 C 24.210938 -1.15625 24.984375 -1.457031 25.796875 -1.8125 C 26.617188 -2.175781 27.519531 -2.582031 28.5 -3.03125 C 29.851562 -3.789062 30.644531 -4.203125 30.875 -4.265625 C 31.0625 -4.265625 31.15625 -4.132812 31.15625 -3.875 C 31.15625 -3.3125 29.703125 -2.320312 26.796875 -0.90625 C 24.242188 0.300781 21.882812 1.195312 19.71875 1.78125 C 17.550781 2.363281 15.570312 2.6875 13.78125 2.75 C 9.988281 2.75 6.878906 1.675781 4.453125 -0.46875 C 2.117188 -2.613281 0.953125 -5.488281 0.953125 -9.09375 C 0.953125 -14.039062 2.828125 -19.054688 6.578125 -24.140625 C 8.347656 -26.515625 10.328125 -28.675781 12.515625 -30.625 C 14.710938 -32.582031 17.171875 -34.351562 19.890625 -35.9375 C 25.128906 -39.125 30.144531 -40.71875 34.9375 -40.71875 C 37.238281 -40.71875 39.148438 -40.148438 40.671875 -39.015625 C 42.117188 -37.941406 42.875 -36.488281 42.9375 -34.65625 Z M 42.9375 -34.65625 "/></g></g></g><g fill="#b27330" fill-opacity="1"><g transform="translate(257.909678, 188.720807)"><g><path d="M 21.546875 -7.8125 C 21.546875 -7.5625 21.484375 -7.390625 21.359375 -7.296875 C 19.742188 -5.898438 18.367188 -4.753906 17.234375 -3.859375 C 16.097656 -2.960938 15.195312 -2.289062 14.53125 -1.84375 C 12.925781 -0.769531 11.472656 0.0390625 10.171875 0.59375 C 8.878906 1.144531 7.710938 1.421875 6.671875 1.421875 C 4.972656 1.421875 4.078125 0.140625 3.984375 -2.421875 C 3.222656 -1.785156 2.128906 -1.101562 0.703125 -0.375 C -0.648438 0.34375 -1.785156 0.703125 -2.703125 0.703125 C -3.328125 0.703125 -3.910156 0.546875 -4.453125 0.234375 C -4.984375 -0.015625 -5.25 -0.394531 -5.25 -0.90625 C -5.25 -2.320312 -3.972656 -4.023438 -1.421875 -6.015625 C -0.0976562 -6.992188 1.117188 -7.734375 2.234375 -8.234375 C 3.359375 -8.742188 4.410156 -9 5.390625 -9 C 6.566406 -9 7.171875 -8.710938 7.203125 -8.140625 C 7.203125 -7.515625 7.007812 -7.054688 6.625 -6.765625 C 6.25 -6.484375 5.835938 -6.34375 5.390625 -6.34375 C 5.390625 -6.375 5.375 -6.4375 5.34375 -6.53125 C 5.3125 -6.59375 5.28125 -6.660156 5.25 -6.734375 C 5.21875 -6.816406 5.171875 -6.921875 5.109375 -7.046875 C 4.921875 -7.492188 4.546875 -7.75 3.984375 -7.8125 C 2.710938 -7.8125 1.289062 -7.117188 -0.28125 -5.734375 C -1.894531 -4.398438 -2.703125 -3.195312 -2.703125 -2.125 C -2.703125 -1.46875 -2.460938 -1.125 -1.984375 -1.09375 C -0.316406 -1.09375 1.460938 -1.738281 3.359375 -3.03125 C 3.773438 -3.3125 4.484375 -4.003906 5.484375 -5.109375 C 6.117188 -5.898438 6.65625 -6.265625 7.09375 -6.203125 C 7.507812 -6.203125 7.71875 -6.046875 7.71875 -5.734375 C 7.71875 -5.441406 7.445312 -4.820312 6.90625 -3.875 C 6.40625 -3 6.15625 -2.351562 6.15625 -1.9375 C 6.15625 -0.769531 6.738281 -0.171875 7.90625 -0.140625 C 9.320312 -0.140625 11.59375 -1.210938 14.71875 -3.359375 C 15.132812 -3.609375 15.863281 -4.113281 16.90625 -4.875 C 17.945312 -5.632812 19.332031 -6.660156 21.0625 -7.953125 C 21.125 -8.015625 21.222656 -8.046875 21.359375 -8.046875 C 21.484375 -8.046875 21.546875 -7.96875 21.546875 -7.8125 Z M 21.546875 -7.8125 "/></g></g></g><g fill="#b27330" fill-opacity="1"><g transform="translate(277.366751, 188.720807)"><g><path d="M 26.1875 -30.53125 C 26.1875 -29.175781 24.539062 -26.585938 21.25 -22.765625 C 18.125 -19.203125 14.71875 -16 11.03125 -13.15625 C 9.257812 -11.769531 7.578125 -10.546875 5.984375 -9.484375 C 4.390625 -8.429688 2.835938 -7.539062 1.328125 -6.8125 L -0.515625 -3.546875 L 7.34375 -3.546875 C 7.96875 -3.546875 8.28125 -3.25 8.28125 -2.65625 C 8.28125 -2.394531 7.96875 -2.21875 7.34375 -2.125 L -1.84375 -1.75 C -3.394531 0.300781 -4.632812 1.914062 -5.5625 3.09375 C -6.488281 4.28125 -7.128906 5.046875 -7.484375 5.390625 C -8.203125 6.273438 -9.066406 7.269531 -10.078125 8.375 C -11.085938 9.476562 -12.289062 10.726562 -13.6875 12.125 C -14.601562 13.039062 -15.53125 13.90625 -16.46875 14.71875 C -17.414062 15.539062 -18.441406 16.316406 -19.546875 17.046875 C -21.347656 18.242188 -23.015625 19.140625 -24.546875 19.734375 C -26.078125 20.335938 -27.550781 20.640625 -28.96875 20.640625 C -29.851562 20.640625 -30.597656 20.40625 -31.203125 19.9375 C -31.828125 19.488281 -32.140625 18.96875 -32.140625 18.375 C -32.140625 17.644531 -31.734375 17.28125 -30.921875 17.28125 C -30.785156 17.375 -30.65625 17.484375 -30.53125 17.609375 C -30.34375 17.828125 -29.984375 18.144531 -29.453125 18.5625 C -29.035156 18.90625 -28.644531 19.144531 -28.28125 19.28125 C -27.925781 19.425781 -27.554688 19.53125 -27.171875 19.59375 C -26.515625 19.59375 -25.726562 19.421875 -24.8125 19.078125 C -23.894531 18.734375 -22.804688 18.195312 -21.546875 17.46875 C -19.171875 16.082031 -16.925781 14.300781 -14.8125 12.125 C -13.519531 10.789062 -12.257812 9.414062 -11.03125 8 C -9.800781 6.582031 -8.585938 5.097656 -7.390625 3.546875 C -5.273438 0.679688 -4.171875 -1.082031 -4.078125 -1.75 L -4.59375 -1.75 C -5.351562 -1.75 -5.734375 -2.082031 -5.734375 -2.75 C -5.734375 -3.21875 -5.128906 -3.484375 -3.921875 -3.546875 L -2.46875 -3.546875 C -1.832031 -4.554688 -0.878906 -6.03125 0.390625 -7.96875 C 1.671875 -9.914062 3.304688 -12.328125 5.296875 -15.203125 C 13.503906 -26.753906 19.738281 -32.5625 24 -32.625 C 24.601562 -32.625 25.125 -32.414062 25.5625 -32 C 25.976562 -31.59375 26.1875 -31.101562 26.1875 -30.53125 Z M 24.328125 -30.53125 C 24.328125 -31.257812 23.773438 -31.625 22.671875 -31.625 C 21.628906 -31.625 19.816406 -30.488281 17.234375 -28.21875 C 15.972656 -27.082031 14.789062 -25.894531 13.6875 -24.65625 C 12.582031 -23.425781 11.523438 -22.148438 10.515625 -20.828125 C 9.503906 -19.410156 8.269531 -17.660156 6.8125 -15.578125 C 5.363281 -13.492188 3.691406 -11.0625 1.796875 -8.28125 C 2.554688 -8.789062 3.476562 -9.398438 4.5625 -10.109375 C 5.65625 -10.816406 6.957031 -11.644531 8.46875 -12.59375 C 11.6875 -14.550781 15.082031 -17.472656 18.65625 -21.359375 C 22.4375 -25.421875 24.328125 -28.476562 24.328125 -30.53125 Z M 24.328125 -30.53125 "/></g></g></g><g fill="#b27330" fill-opacity="1"><g transform="translate(291.663678, 188.720807)"><g><path d="M 12.828125 -7.765625 C 12.828125 -7.578125 12.765625 -7.40625 12.640625 -7.25 C 10.992188 -5.851562 9.601562 -4.710938 8.46875 -3.828125 C 7.332031 -2.953125 6.4375 -2.289062 5.78125 -1.84375 C 2.625 0.269531 -0.234375 1.359375 -2.796875 1.421875 C -4.972656 1.421875 -6.078125 0.300781 -6.109375 -1.9375 C -6.109375 -3.332031 -5.300781 -4.957031 -3.6875 -6.8125 C -1.957031 -8.613281 -0.507812 -9.515625 0.65625 -9.515625 C 1.070312 -9.515625 1.4375 -9.359375 1.75 -9.046875 C 2.09375 -8.753906 2.265625 -8.4375 2.265625 -8.09375 C 2.265625 -7.8125 2.207031 -7.539062 2.09375 -7.28125 C 1.988281 -7.03125 1.765625 -6.734375 1.421875 -6.390625 C 1.109375 -6.078125 0.816406 -5.816406 0.546875 -5.609375 C 0.273438 -5.398438 -0.03125 -5.171875 -0.375 -4.921875 C -0.882812 -4.546875 -1.429688 -4.160156 -2.015625 -3.765625 C -2.597656 -3.367188 -3.269531 -2.984375 -4.03125 -2.609375 C -4.0625 -1.847656 -3.742188 -1.210938 -3.078125 -0.703125 C -2.535156 -0.359375 -1.953125 -0.1875 -1.328125 -0.1875 C 0.316406 -0.1875 2.765625 -1.242188 6.015625 -3.359375 C 6.328125 -3.578125 7.003906 -4.066406 8.046875 -4.828125 C 9.085938 -5.585938 10.507812 -6.644531 12.3125 -8 C 12.40625 -8.03125 12.515625 -8.046875 12.640625 -8.046875 C 12.734375 -8.046875 12.796875 -7.953125 12.828125 -7.765625 Z M 0.1875 -7.578125 C 0.1875 -7.828125 -0.015625 -7.953125 -0.421875 -7.953125 C -0.640625 -7.953125 -0.9375 -7.832031 -1.3125 -7.59375 C -1.695312 -7.363281 -2.113281 -6.992188 -2.5625 -6.484375 C -2.875 -6.140625 -3.15625 -5.742188 -3.40625 -5.296875 C -3.65625 -4.859375 -3.8125 -4.46875 -3.875 -4.125 C -3.8125 -4.125 -3.6875 -4.15625 -3.5 -4.21875 C -3.3125 -4.28125 -3.140625 -4.359375 -2.984375 -4.453125 C -2.160156 -4.890625 -1.425781 -5.40625 -0.78125 -6 C -0.132812 -6.601562 0.1875 -7.128906 0.1875 -7.578125 Z M 0.1875 -7.578125 "/></g></g></g><g fill="#2e1910" fill-opacity="1"><g transform="translate(36.727291, 221.05363)"><g><path d="M 11.171875 -5.90625 C 11.171875 -4.664062 10.960938 -3.582031 10.546875 -2.65625 C 10.128906 -1.738281 9.539062 -1.035156 8.78125 -0.546875 C 8.019531 -0.0664062 7.128906 0.171875 6.109375 0.171875 C 5.117188 0.171875 4.238281 -0.0703125 3.46875 -0.5625 C 2.695312 -1.050781 2.097656 -1.742188 1.671875 -2.640625 C 1.253906 -3.546875 1.035156 -4.597656 1.015625 -5.796875 L 1.015625 -6.703125 C 1.015625 -7.910156 1.222656 -8.976562 1.640625 -9.90625 C 2.066406 -10.84375 2.664062 -11.554688 3.4375 -12.046875 C 4.21875 -12.546875 5.101562 -12.796875 6.09375 -12.796875 C 7.101562 -12.796875 7.992188 -12.550781 8.765625 -12.0625 C 9.535156 -11.570312 10.128906 -10.863281 10.546875 -9.9375 C 10.960938 -9.007812 11.171875 -7.929688 11.171875 -6.703125 Z M 9.515625 -6.71875 C 9.515625 -8.21875 9.210938 -9.363281 8.609375 -10.15625 C 8.015625 -10.957031 7.175781 -11.359375 6.09375 -11.359375 C 5.039062 -11.359375 4.210938 -10.957031 3.609375 -10.15625 C 3.003906 -9.363281 2.691406 -8.253906 2.671875 -6.828125 L 2.671875 -5.90625 C 2.671875 -4.457031 2.972656 -3.316406 3.578125 -2.484375 C 4.191406 -1.648438 5.035156 -1.234375 6.109375 -1.234375 C 7.179688 -1.234375 8.007812 -1.625 8.59375 -2.40625 C 9.1875 -3.195312 9.492188 -4.320312 9.515625 -5.78125 Z M 9.515625 -6.71875 "/></g></g><g transform="translate(48.935342, 221.05363)"><g/></g><g transform="translate(53.33128, 221.05363)"><g><path d="M 0.828125 -4.765625 C 0.828125 -6.203125 1.164062 -7.359375 1.84375 -8.234375 C 2.53125 -9.109375 3.425781 -9.546875 4.53125 -9.546875 C 5.625 -9.546875 6.492188 -9.171875 7.140625 -8.421875 L 7.140625 -13.3125 L 8.734375 -13.3125 L 8.734375 0 L 7.265625 0 L 7.1875 -1 C 6.539062 -0.21875 5.644531 0.171875 4.5 0.171875 C 3.414062 0.171875 2.53125 -0.269531 1.84375 -1.15625 C 1.164062 -2.050781 0.828125 -3.210938 0.828125 -4.640625 Z M 2.421875 -4.578125 C 2.421875 -3.515625 2.640625 -2.679688 3.078125 -2.078125 C 3.523438 -1.484375 4.132812 -1.1875 4.90625 -1.1875 C 5.925781 -1.1875 6.671875 -1.644531 7.140625 -2.5625 L 7.140625 -6.859375 C 6.648438 -7.742188 5.910156 -8.1875 4.921875 -8.1875 C 4.140625 -8.1875 3.523438 -7.882812 3.078125 -7.28125 C 2.640625 -6.675781 2.421875 -5.773438 2.421875 -4.578125 Z M 2.421875 -4.578125 "/></g></g><g transform="translate(63.345697, 221.05363)"><g><path d="M 5.109375 0.171875 C 3.835938 0.171875 2.800781 -0.242188 2 -1.078125 C 1.207031 -1.910156 0.8125 -3.023438 0.8125 -4.421875 L 0.8125 -4.71875 C 0.8125 -5.65625 0.988281 -6.488281 1.34375 -7.21875 C 1.695312 -7.945312 2.191406 -8.515625 2.828125 -8.921875 C 3.460938 -9.335938 4.15625 -9.546875 4.90625 -9.546875 C 6.125 -9.546875 7.070312 -9.144531 7.75 -8.34375 C 8.425781 -7.539062 8.765625 -6.390625 8.765625 -4.890625 L 8.765625 -4.234375 L 2.40625 -4.234375 C 2.425781 -3.304688 2.695312 -2.554688 3.21875 -1.984375 C 3.738281 -1.421875 4.394531 -1.140625 5.1875 -1.140625 C 5.757812 -1.140625 6.238281 -1.253906 6.625 -1.484375 C 7.019531 -1.710938 7.363281 -2.019531 7.65625 -2.40625 L 8.640625 -1.640625 C 7.859375 -0.429688 6.679688 0.171875 5.109375 0.171875 Z M 4.90625 -8.234375 C 4.257812 -8.234375 3.71875 -8 3.28125 -7.53125 C 2.84375 -7.0625 2.570312 -6.398438 2.46875 -5.546875 L 7.15625 -5.546875 L 7.15625 -5.671875 C 7.113281 -6.484375 6.894531 -7.113281 6.5 -7.5625 C 6.101562 -8.007812 5.570312 -8.234375 4.90625 -8.234375 Z M 4.90625 -8.234375 "/></g></g><g transform="translate(72.753179, 221.05363)"><g><path d="M 6.671875 -2.484375 C 6.671875 -2.921875 6.503906 -3.257812 6.171875 -3.5 C 5.847656 -3.738281 5.28125 -3.941406 4.46875 -4.109375 C 3.664062 -4.285156 3.023438 -4.492188 2.546875 -4.734375 C 2.066406 -4.984375 1.710938 -5.273438 1.484375 -5.609375 C 1.253906 -5.941406 1.140625 -6.335938 1.140625 -6.796875 C 1.140625 -7.566406 1.460938 -8.21875 2.109375 -8.75 C 2.765625 -9.28125 3.597656 -9.546875 4.609375 -9.546875 C 5.671875 -9.546875 6.53125 -9.269531 7.1875 -8.71875 C 7.851562 -8.175781 8.1875 -7.476562 8.1875 -6.625 L 6.578125 -6.625 C 6.578125 -7.0625 6.390625 -7.4375 6.015625 -7.75 C 5.640625 -8.070312 5.171875 -8.234375 4.609375 -8.234375 C 4.023438 -8.234375 3.566406 -8.101562 3.234375 -7.84375 C 2.910156 -7.59375 2.75 -7.265625 2.75 -6.859375 C 2.75 -6.472656 2.898438 -6.179688 3.203125 -5.984375 C 3.515625 -5.785156 4.066406 -5.59375 4.859375 -5.40625 C 5.660156 -5.226562 6.3125 -5.015625 6.8125 -4.765625 C 7.3125 -4.523438 7.679688 -4.226562 7.921875 -3.875 C 8.160156 -3.53125 8.28125 -3.101562 8.28125 -2.59375 C 8.28125 -1.757812 7.941406 -1.085938 7.265625 -0.578125 C 6.597656 -0.078125 5.726562 0.171875 4.65625 0.171875 C 3.90625 0.171875 3.238281 0.0390625 2.65625 -0.21875 C 2.082031 -0.488281 1.632812 -0.859375 1.3125 -1.328125 C 0.988281 -1.804688 0.828125 -2.328125 0.828125 -2.890625 L 2.421875 -2.890625 C 2.453125 -2.347656 2.664062 -1.921875 3.0625 -1.609375 C 3.46875 -1.296875 4 -1.140625 4.65625 -1.140625 C 5.269531 -1.140625 5.757812 -1.257812 6.125 -1.5 C 6.488281 -1.75 6.671875 -2.078125 6.671875 -2.484375 Z M 6.671875 -2.484375 "/></g></g><g transform="translate(81.909217, 221.05363)"><g><path d="M 9.140625 -4.578125 C 9.140625 -3.148438 8.8125 -2 8.15625 -1.125 C 7.5 -0.257812 6.613281 0.171875 5.5 0.171875 C 4.363281 0.171875 3.46875 -0.1875 2.8125 -0.90625 L 2.8125 3.609375 L 1.21875 3.609375 L 1.21875 -9.375 L 2.671875 -9.375 L 2.75 -8.34375 C 3.40625 -9.144531 4.316406 -9.546875 5.484375 -9.546875 C 6.609375 -9.546875 7.5 -9.117188 8.15625 -8.265625 C 8.8125 -7.421875 9.140625 -6.242188 9.140625 -4.734375 Z M 7.53125 -4.765625 C 7.53125 -5.828125 7.300781 -6.660156 6.84375 -7.265625 C 6.394531 -7.878906 5.78125 -8.1875 5 -8.1875 C 4.03125 -8.1875 3.300781 -7.757812 2.8125 -6.90625 L 2.8125 -2.421875 C 3.289062 -1.566406 4.023438 -1.140625 5.015625 -1.140625 C 5.785156 -1.140625 6.394531 -1.441406 6.84375 -2.046875 C 7.300781 -2.660156 7.53125 -3.566406 7.53125 -4.765625 Z M 7.53125 -4.765625 "/></g></g><g transform="translate(91.87161, 221.05363)"><g><path d="M 5.109375 0.171875 C 3.835938 0.171875 2.800781 -0.242188 2 -1.078125 C 1.207031 -1.910156 0.8125 -3.023438 0.8125 -4.421875 L 0.8125 -4.71875 C 0.8125 -5.65625 0.988281 -6.488281 1.34375 -7.21875 C 1.695312 -7.945312 2.191406 -8.515625 2.828125 -8.921875 C 3.460938 -9.335938 4.15625 -9.546875 4.90625 -9.546875 C 6.125 -9.546875 7.070312 -9.144531 7.75 -8.34375 C 8.425781 -7.539062 8.765625 -6.390625 8.765625 -4.890625 L 8.765625 -4.234375 L 2.40625 -4.234375 C 2.425781 -3.304688 2.695312 -2.554688 3.21875 -1.984375 C 3.738281 -1.421875 4.394531 -1.140625 5.1875 -1.140625 C 5.757812 -1.140625 6.238281 -1.253906 6.625 -1.484375 C 7.019531 -1.710938 7.363281 -2.019531 7.65625 -2.40625 L 8.640625 -1.640625 C 7.859375 -0.429688 6.679688 0.171875 5.109375 0.171875 Z M 4.90625 -8.234375 C 4.257812 -8.234375 3.71875 -8 3.28125 -7.53125 C 2.84375 -7.0625 2.570312 -6.398438 2.46875 -5.546875 L 7.15625 -5.546875 L 7.15625 -5.671875 C 7.113281 -6.484375 6.894531 -7.113281 6.5 -7.5625 C 6.101562 -8.007812 5.570312 -8.234375 4.90625 -8.234375 Z M 4.90625 -8.234375 "/></g></g><g transform="translate(101.279093, 221.05363)"><g><path d="M 5.75 -7.9375 C 5.5 -7.976562 5.234375 -8 4.953125 -8 C 3.898438 -8 3.1875 -7.550781 2.8125 -6.65625 L 2.8125 0 L 1.21875 0 L 1.21875 -9.375 L 2.78125 -9.375 L 2.796875 -8.296875 C 3.328125 -9.128906 4.070312 -9.546875 5.03125 -9.546875 C 5.34375 -9.546875 5.582031 -9.507812 5.75 -9.4375 Z M 5.75 -7.9375 "/></g></g><g transform="translate(107.287743, 221.05363)"><g><path d="M 3.390625 -11.65625 L 3.390625 -9.375 L 5.140625 -9.375 L 5.140625 -8.140625 L 3.390625 -8.140625 L 3.390625 -2.328125 C 3.390625 -1.953125 3.46875 -1.671875 3.625 -1.484375 C 3.78125 -1.296875 4.046875 -1.203125 4.421875 -1.203125 C 4.609375 -1.203125 4.863281 -1.234375 5.1875 -1.296875 L 5.1875 0 C 4.757812 0.113281 4.347656 0.171875 3.953125 0.171875 C 3.234375 0.171875 2.691406 -0.0390625 2.328125 -0.46875 C 1.960938 -0.90625 1.78125 -1.523438 1.78125 -2.328125 L 1.78125 -8.140625 L 0.078125 -8.140625 L 0.078125 -9.375 L 1.78125 -9.375 L 1.78125 -11.65625 Z M 3.390625 -11.65625 "/></g></g><g transform="translate(113.088301, 221.05363)"><g><path d="M 7 0 C 6.90625 -0.1875 6.832031 -0.515625 6.78125 -0.984375 C 6.03125 -0.210938 5.140625 0.171875 4.109375 0.171875 C 3.179688 0.171875 2.421875 -0.0859375 1.828125 -0.609375 C 1.234375 -1.128906 0.9375 -1.789062 0.9375 -2.59375 C 0.9375 -3.570312 1.304688 -4.332031 2.046875 -4.875 C 2.796875 -5.414062 3.84375 -5.6875 5.1875 -5.6875 L 6.75 -5.6875 L 6.75 -6.421875 C 6.75 -6.984375 6.582031 -7.429688 6.25 -7.765625 C 5.914062 -8.097656 5.421875 -8.265625 4.765625 -8.265625 C 4.191406 -8.265625 3.710938 -8.117188 3.328125 -7.828125 C 2.941406 -7.535156 2.75 -7.1875 2.75 -6.78125 L 1.140625 -6.78125 C 1.140625 -7.25 1.300781 -7.695312 1.625 -8.125 C 1.957031 -8.5625 2.410156 -8.90625 2.984375 -9.15625 C 3.554688 -9.414062 4.179688 -9.546875 4.859375 -9.546875 C 5.941406 -9.546875 6.789062 -9.273438 7.40625 -8.734375 C 8.019531 -8.203125 8.335938 -7.460938 8.359375 -6.515625 L 8.359375 -2.1875 C 8.359375 -1.332031 8.46875 -0.648438 8.6875 -0.140625 L 8.6875 0 Z M 4.34375 -1.21875 C 4.84375 -1.21875 5.316406 -1.347656 5.765625 -1.609375 C 6.222656 -1.867188 6.550781 -2.207031 6.75 -2.625 L 6.75 -4.546875 L 5.5 -4.546875 C 3.53125 -4.546875 2.546875 -3.972656 2.546875 -2.828125 C 2.546875 -2.328125 2.710938 -1.929688 3.046875 -1.640625 C 3.378906 -1.359375 3.8125 -1.21875 4.34375 -1.21875 Z M 4.34375 -1.21875 "/></g></g><g transform="translate(122.747227, 221.05363)"><g><path d="M 5.75 -7.9375 C 5.5 -7.976562 5.234375 -8 4.953125 -8 C 3.898438 -8 3.1875 -7.550781 2.8125 -6.65625 L 2.8125 0 L 1.21875 0 L 1.21875 -9.375 L 2.78125 -9.375 L 2.796875 -8.296875 C 3.328125 -9.128906 4.070312 -9.546875 5.03125 -9.546875 C 5.34375 -9.546875 5.582031 -9.507812 5.75 -9.4375 Z M 5.75 -7.9375 "/></g></g><g transform="translate(128.755877, 221.05363)"><g/></g><g transform="translate(133.151816, 221.05363)"><g><path d="M 0.828125 -4.765625 C 0.828125 -6.203125 1.164062 -7.359375 1.84375 -8.234375 C 2.53125 -9.109375 3.425781 -9.546875 4.53125 -9.546875 C 5.625 -9.546875 6.492188 -9.171875 7.140625 -8.421875 L 7.140625 -13.3125 L 8.734375 -13.3125 L 8.734375 0 L 7.265625 0 L 7.1875 -1 C 6.539062 -0.21875 5.644531 0.171875 4.5 0.171875 C 3.414062 0.171875 2.53125 -0.269531 1.84375 -1.15625 C 1.164062 -2.050781 0.828125 -3.210938 0.828125 -4.640625 Z M 2.421875 -4.578125 C 2.421875 -3.515625 2.640625 -2.679688 3.078125 -2.078125 C 3.523438 -1.484375 4.132812 -1.1875 4.90625 -1.1875 C 5.925781 -1.1875 6.671875 -1.644531 7.140625 -2.5625 L 7.140625 -6.859375 C 6.648438 -7.742188 5.910156 -8.1875 4.921875 -8.1875 C 4.140625 -8.1875 3.523438 -7.882812 3.078125 -7.28125 C 2.640625 -6.675781 2.421875 -5.773438 2.421875 -4.578125 Z M 2.421875 -4.578125 "/></g></g><g transform="translate(143.166232, 221.05363)"><g><path d="M 0.78125 -4.78125 C 0.78125 -5.695312 0.960938 -6.519531 1.328125 -7.25 C 1.691406 -7.988281 2.195312 -8.554688 2.84375 -8.953125 C 3.488281 -9.347656 4.222656 -9.546875 5.046875 -9.546875 C 6.316406 -9.546875 7.347656 -9.101562 8.140625 -8.21875 C 8.929688 -7.34375 9.328125 -6.171875 9.328125 -4.703125 L 9.328125 -4.578125 C 9.328125 -3.671875 9.148438 -2.851562 8.796875 -2.125 C 8.453125 -1.40625 7.953125 -0.84375 7.296875 -0.4375 C 6.648438 -0.03125 5.90625 0.171875 5.0625 0.171875 C 3.789062 0.171875 2.757812 -0.269531 1.96875 -1.15625 C 1.175781 -2.039062 0.78125 -3.207031 0.78125 -4.65625 Z M 2.40625 -4.578125 C 2.40625 -3.546875 2.644531 -2.710938 3.125 -2.078125 C 3.601562 -1.453125 4.25 -1.140625 5.0625 -1.140625 C 5.875 -1.140625 6.519531 -1.457031 7 -2.09375 C 7.476562 -2.726562 7.71875 -3.625 7.71875 -4.78125 C 7.71875 -5.800781 7.472656 -6.628906 6.984375 -7.265625 C 6.492188 -7.910156 5.847656 -8.234375 5.046875 -8.234375 C 4.253906 -8.234375 3.613281 -7.914062 3.125 -7.28125 C 2.644531 -6.65625 2.40625 -5.753906 2.40625 -4.578125 Z M 2.40625 -4.578125 "/></g></g><g transform="translate(153.293365, 221.05363)"><g><path d="M 6.671875 -2.484375 C 6.671875 -2.921875 6.503906 -3.257812 6.171875 -3.5 C 5.847656 -3.738281 5.28125 -3.941406 4.46875 -4.109375 C 3.664062 -4.285156 3.023438 -4.492188 2.546875 -4.734375 C 2.066406 -4.984375 1.710938 -5.273438 1.484375 -5.609375 C 1.253906 -5.941406 1.140625 -6.335938 1.140625 -6.796875 C 1.140625 -7.566406 1.460938 -8.21875 2.109375 -8.75 C 2.765625 -9.28125 3.597656 -9.546875 4.609375 -9.546875 C 5.671875 -9.546875 6.53125 -9.269531 7.1875 -8.71875 C 7.851562 -8.175781 8.1875 -7.476562 8.1875 -6.625 L 6.578125 -6.625 C 6.578125 -7.0625 6.390625 -7.4375 6.015625 -7.75 C 5.640625 -8.070312 5.171875 -8.234375 4.609375 -8.234375 C 4.023438 -8.234375 3.566406 -8.101562 3.234375 -7.84375 C 2.910156 -7.59375 2.75 -7.265625 2.75 -6.859375 C 2.75 -6.472656 2.898438 -6.179688 3.203125 -5.984375 C 3.515625 -5.785156 4.066406 -5.59375 4.859375 -5.40625 C 5.660156 -5.226562 6.3125 -5.015625 6.8125 -4.765625 C 7.3125 -4.523438 7.679688 -4.226562 7.921875 -3.875 C 8.160156 -3.53125 8.28125 -3.101562 8.28125 -2.59375 C 8.28125 -1.757812 7.941406 -1.085938 7.265625 -0.578125 C 6.597656 -0.078125 5.726562 0.171875 4.65625 0.171875 C 3.90625 0.171875 3.238281 0.0390625 2.65625 -0.21875 C 2.082031 -0.488281 1.632812 -0.859375 1.3125 -1.328125 C 0.988281 -1.804688 0.828125 -2.328125 0.828125 -2.890625 L 2.421875 -2.890625 C 2.453125 -2.347656 2.664062 -1.921875 3.0625 -1.609375 C 3.46875 -1.296875 4 -1.140625 4.65625 -1.140625 C 5.269531 -1.140625 5.757812 -1.257812 6.125 -1.5 C 6.488281 -1.75 6.671875 -2.078125 6.671875 -2.484375 Z M 6.671875 -2.484375 "/></g></g><g transform="translate(162.449403, 221.05363)"><g/></g><g transform="translate(166.845342, 221.05363)"><g><path d="M 6.671875 -2.484375 C 6.671875 -2.921875 6.503906 -3.257812 6.171875 -3.5 C 5.847656 -3.738281 5.28125 -3.941406 4.46875 -4.109375 C 3.664062 -4.285156 3.023438 -4.492188 2.546875 -4.734375 C 2.066406 -4.984375 1.710938 -5.273438 1.484375 -5.609375 C 1.253906 -5.941406 1.140625 -6.335938 1.140625 -6.796875 C 1.140625 -7.566406 1.460938 -8.21875 2.109375 -8.75 C 2.765625 -9.28125 3.597656 -9.546875 4.609375 -9.546875 C 5.671875 -9.546875 6.53125 -9.269531 7.1875 -8.71875 C 7.851562 -8.175781 8.1875 -7.476562 8.1875 -6.625 L 6.578125 -6.625 C 6.578125 -7.0625 6.390625 -7.4375 6.015625 -7.75 C 5.640625 -8.070312 5.171875 -8.234375 4.609375 -8.234375 C 4.023438 -8.234375 3.566406 -8.101562 3.234375 -7.84375 C 2.910156 -7.59375 2.75 -7.265625 2.75 -6.859375 C 2.75 -6.472656 2.898438 -6.179688 3.203125 -5.984375 C 3.515625 -5.785156 4.066406 -5.59375 4.859375 -5.40625 C 5.660156 -5.226562 6.3125 -5.015625 6.8125 -4.765625 C 7.3125 -4.523438 7.679688 -4.226562 7.921875 -3.875 C 8.160156 -3.53125 8.28125 -3.101562 8.28125 -2.59375 C 8.28125 -1.757812 7.941406 -1.085938 7.265625 -0.578125 C 6.597656 -0.078125 5.726562 0.171875 4.65625 0.171875 C 3.90625 0.171875 3.238281 0.0390625 2.65625 -0.21875 C 2.082031 -0.488281 1.632812 -0.859375 1.3125 -1.328125 C 0.988281 -1.804688 0.828125 -2.328125 0.828125 -2.890625 L 2.421875 -2.890625 C 2.453125 -2.347656 2.664062 -1.921875 3.0625 -1.609375 C 3.46875 -1.296875 4 -1.140625 4.65625 -1.140625 C 5.269531 -1.140625 5.757812 -1.257812 6.125 -1.5 C 6.488281 -1.75 6.671875 -2.078125 6.671875 -2.484375 Z M 6.671875 -2.484375 "/></g></g><g transform="translate(176.00138, 221.05363)"><g><path d="M 7 0 C 6.90625 -0.1875 6.832031 -0.515625 6.78125 -0.984375 C 6.03125 -0.210938 5.140625 0.171875 4.109375 0.171875 C 3.179688 0.171875 2.421875 -0.0859375 1.828125 -0.609375 C 1.234375 -1.128906 0.9375 -1.789062 0.9375 -2.59375 C 0.9375 -3.570312 1.304688 -4.332031 2.046875 -4.875 C 2.796875 -5.414062 3.84375 -5.6875 5.1875 -5.6875 L 6.75 -5.6875 L 6.75 -6.421875 C 6.75 -6.984375 6.582031 -7.429688 6.25 -7.765625 C 5.914062 -8.097656 5.421875 -8.265625 4.765625 -8.265625 C 4.191406 -8.265625 3.710938 -8.117188 3.328125 -7.828125 C 2.941406 -7.535156 2.75 -7.1875 2.75 -6.78125 L 1.140625 -6.78125 C 1.140625 -7.25 1.300781 -7.695312 1.625 -8.125 C 1.957031 -8.5625 2.410156 -8.90625 2.984375 -9.15625 C 3.554688 -9.414062 4.179688 -9.546875 4.859375 -9.546875 C 5.941406 -9.546875 6.789062 -9.273438 7.40625 -8.734375 C 8.019531 -8.203125 8.335938 -7.460938 8.359375 -6.515625 L 8.359375 -2.1875 C 8.359375 -1.332031 8.46875 -0.648438 8.6875 -0.140625 L 8.6875 0 Z M 4.34375 -1.21875 C 4.84375 -1.21875 5.316406 -1.347656 5.765625 -1.609375 C 6.222656 -1.867188 6.550781 -2.207031 6.75 -2.625 L 6.75 -4.546875 L 5.5 -4.546875 C 3.53125 -4.546875 2.546875 -3.972656 2.546875 -2.828125 C 2.546875 -2.328125 2.710938 -1.929688 3.046875 -1.640625 C 3.378906 -1.359375 3.8125 -1.21875 4.34375 -1.21875 Z M 4.34375 -1.21875 "/></g></g><g transform="translate(185.660306, 221.05363)"><g><path d="M 9.15625 -4.578125 C 9.15625 -3.148438 8.820312 -2 8.15625 -1.125 C 7.5 -0.257812 6.617188 0.171875 5.515625 0.171875 C 4.328125 0.171875 3.410156 -0.242188 2.765625 -1.078125 L 2.6875 0 L 1.21875 0 L 1.21875 -13.3125 L 2.8125 -13.3125 L 2.8125 -8.34375 C 3.457031 -9.144531 4.347656 -9.546875 5.484375 -9.546875 C 6.628906 -9.546875 7.523438 -9.113281 8.171875 -8.25 C 8.828125 -7.394531 9.15625 -6.21875 9.15625 -4.71875 Z M 7.546875 -4.765625 C 7.546875 -5.859375 7.332031 -6.703125 6.90625 -7.296875 C 6.488281 -7.890625 5.882812 -8.1875 5.09375 -8.1875 C 4.039062 -8.1875 3.28125 -7.695312 2.8125 -6.71875 L 2.8125 -2.65625 C 3.300781 -1.675781 4.066406 -1.1875 5.109375 -1.1875 C 5.878906 -1.1875 6.476562 -1.484375 6.90625 -2.078125 C 7.332031 -2.671875 7.546875 -3.566406 7.546875 -4.765625 Z M 7.546875 -4.765625 "/></g></g><g transform="translate(195.6227, 221.05363)"><g><path d="M 0.78125 -4.78125 C 0.78125 -5.695312 0.960938 -6.519531 1.328125 -7.25 C 1.691406 -7.988281 2.195312 -8.554688 2.84375 -8.953125 C 3.488281 -9.347656 4.222656 -9.546875 5.046875 -9.546875 C 6.316406 -9.546875 7.347656 -9.101562 8.140625 -8.21875 C 8.929688 -7.34375 9.328125 -6.171875 9.328125 -4.703125 L 9.328125 -4.578125 C 9.328125 -3.671875 9.148438 -2.851562 8.796875 -2.125 C 8.453125 -1.40625 7.953125 -0.84375 7.296875 -0.4375 C 6.648438 -0.03125 5.90625 0.171875 5.0625 0.171875 C 3.789062 0.171875 2.757812 -0.269531 1.96875 -1.15625 C 1.175781 -2.039062 0.78125 -3.207031 0.78125 -4.65625 Z M 2.40625 -4.578125 C 2.40625 -3.546875 2.644531 -2.710938 3.125 -2.078125 C 3.601562 -1.453125 4.25 -1.140625 5.0625 -1.140625 C 5.875 -1.140625 6.519531 -1.457031 7 -2.09375 C 7.476562 -2.726562 7.71875 -3.625 7.71875 -4.78125 C 7.71875 -5.800781 7.472656 -6.628906 6.984375 -7.265625 C 6.492188 -7.910156 5.847656 -8.234375 5.046875 -8.234375 C 4.253906 -8.234375 3.613281 -7.914062 3.125 -7.28125 C 2.644531 -6.65625 2.40625 -5.753906 2.40625 -4.578125 Z M 2.40625 -4.578125 "/></g></g><g transform="translate(205.749833, 221.05363)"><g><path d="M 5.75 -7.9375 C 5.5 -7.976562 5.234375 -8 4.953125 -8 C 3.898438 -8 3.1875 -7.550781 2.8125 -6.65625 L 2.8125 0 L 1.21875 0 L 1.21875 -9.375 L 2.78125 -9.375 L 2.796875 -8.296875 C 3.328125 -9.128906 4.070312 -9.546875 5.03125 -9.546875 C 5.34375 -9.546875 5.582031 -9.507812 5.75 -9.4375 Z M 5.75 -7.9375 "/></g></g><g transform="translate(211.758483, 221.05363)"><g><path d="M 5.109375 0.171875 C 3.835938 0.171875 2.800781 -0.242188 2 -1.078125 C 1.207031 -1.910156 0.8125 -3.023438 0.8125 -4.421875 L 0.8125 -4.71875 C 0.8125 -5.65625 0.988281 -6.488281 1.34375 -7.21875 C 1.695312 -7.945312 2.191406 -8.515625 2.828125 -8.921875 C 3.460938 -9.335938 4.15625 -9.546875 4.90625 -9.546875 C 6.125 -9.546875 7.070312 -9.144531 7.75 -8.34375 C 8.425781 -7.539062 8.765625 -6.390625 8.765625 -4.890625 L 8.765625 -4.234375 L 2.40625 -4.234375 C 2.425781 -3.304688 2.695312 -2.554688 3.21875 -1.984375 C 3.738281 -1.421875 4.394531 -1.140625 5.1875 -1.140625 C 5.757812 -1.140625 6.238281 -1.253906 6.625 -1.484375 C 7.019531 -1.710938 7.363281 -2.019531 7.65625 -2.40625 L 8.640625 -1.640625 C 7.859375 -0.429688 6.679688 0.171875 5.109375 0.171875 Z M 4.90625 -8.234375 C 4.257812 -8.234375 3.71875 -8 3.28125 -7.53125 C 2.84375 -7.0625 2.570312 -6.398438 2.46875 -5.546875 L 7.15625 -5.546875 L 7.15625 -5.671875 C 7.113281 -6.484375 6.894531 -7.113281 6.5 -7.5625 C 6.101562 -8.007812 5.570312 -8.234375 4.90625 -8.234375 Z M 4.90625 -8.234375 "/></g></g><g transform="translate(221.165965, 221.05363)"><g><path d="M 6.671875 -2.484375 C 6.671875 -2.921875 6.503906 -3.257812 6.171875 -3.5 C 5.847656 -3.738281 5.28125 -3.941406 4.46875 -4.109375 C 3.664062 -4.285156 3.023438 -4.492188 2.546875 -4.734375 C 2.066406 -4.984375 1.710938 -5.273438 1.484375 -5.609375 C 1.253906 -5.941406 1.140625 -6.335938 1.140625 -6.796875 C 1.140625 -7.566406 1.460938 -8.21875 2.109375 -8.75 C 2.765625 -9.28125 3.597656 -9.546875 4.609375 -9.546875 C 5.671875 -9.546875 6.53125 -9.269531 7.1875 -8.71875 C 7.851562 -8.175781 8.1875 -7.476562 8.1875 -6.625 L 6.578125 -6.625 C 6.578125 -7.0625 6.390625 -7.4375 6.015625 -7.75 C 5.640625 -8.070312 5.171875 -8.234375 4.609375 -8.234375 C 4.023438 -8.234375 3.566406 -8.101562 3.234375 -7.84375 C 2.910156 -7.59375 2.75 -7.265625 2.75 -6.859375 C 2.75 -6.472656 2.898438 -6.179688 3.203125 -5.984375 C 3.515625 -5.785156 4.066406 -5.59375 4.859375 -5.40625 C 5.660156 -5.226562 6.3125 -5.015625 6.8125 -4.765625 C 7.3125 -4.523438 7.679688 -4.226562 7.921875 -3.875 C 8.160156 -3.53125 8.28125 -3.101562 8.28125 -2.59375 C 8.28125 -1.757812 7.941406 -1.085938 7.265625 -0.578125 C 6.597656 -0.078125 5.726562 0.171875 4.65625 0.171875 C 3.90625 0.171875 3.238281 0.0390625 2.65625 -0.21875 C 2.082031 -0.488281 1.632812 -0.859375 1.3125 -1.328125 C 0.988281 -1.804688 0.828125 -2.328125 0.828125 -2.890625 L 2.421875 -2.890625 C 2.453125 -2.347656 2.664062 -1.921875 3.0625 -1.609375 C 3.46875 -1.296875 4 -1.140625 4.65625 -1.140625 C 5.269531 -1.140625 5.757812 -1.257812 6.125 -1.5 C 6.488281 -1.75 6.671875 -2.078125 6.671875 -2.484375 Z M 6.671875 -2.484375 "/></g></g><g transform="translate(230.322003, 221.05363)"><g/></g><g transform="translate(234.717941, 221.05363)"><g><path d="M 5.109375 0.171875 C 3.835938 0.171875 2.800781 -0.242188 2 -1.078125 C 1.207031 -1.910156 0.8125 -3.023438 0.8125 -4.421875 L 0.8125 -4.71875 C 0.8125 -5.65625 0.988281 -6.488281 1.34375 -7.21875 C 1.695312 -7.945312 2.191406 -8.515625 2.828125 -8.921875 C 3.460938 -9.335938 4.15625 -9.546875 4.90625 -9.546875 C 6.125 -9.546875 7.070312 -9.144531 7.75 -8.34375 C 8.425781 -7.539062 8.765625 -6.390625 8.765625 -4.890625 L 8.765625 -4.234375 L 2.40625 -4.234375 C 2.425781 -3.304688 2.695312 -2.554688 3.21875 -1.984375 C 3.738281 -1.421875 4.394531 -1.140625 5.1875 -1.140625 C 5.757812 -1.140625 6.238281 -1.253906 6.625 -1.484375 C 7.019531 -1.710938 7.363281 -2.019531 7.65625 -2.40625 L 8.640625 -1.640625 C 7.859375 -0.429688 6.679688 0.171875 5.109375 0.171875 Z M 4.90625 -8.234375 C 4.257812 -8.234375 3.71875 -8 3.28125 -7.53125 C 2.84375 -7.0625 2.570312 -6.398438 2.46875 -5.546875 L 7.15625 -5.546875 L 7.15625 -5.671875 C 7.113281 -6.484375 6.894531 -7.113281 6.5 -7.5625 C 6.101562 -8.007812 5.570312 -8.234375 4.90625 -8.234375 Z M 4.90625 -8.234375 "/></g></g><g transform="translate(244.125424, 221.05363)"><g/></g><g transform="translate(248.521362, 221.05363)"><g><path d="M 6.671875 -2.484375 C 6.671875 -2.921875 6.503906 -3.257812 6.171875 -3.5 C 5.847656 -3.738281 5.28125 -3.941406 4.46875 -4.109375 C 3.664062 -4.285156 3.023438 -4.492188 2.546875 -4.734375 C 2.066406 -4.984375 1.710938 -5.273438 1.484375 -5.609375 C 1.253906 -5.941406 1.140625 -6.335938 1.140625 -6.796875 C 1.140625 -7.566406 1.460938 -8.21875 2.109375 -8.75 C 2.765625 -9.28125 3.597656 -9.546875 4.609375 -9.546875 C 5.671875 -9.546875 6.53125 -9.269531 7.1875 -8.71875 C 7.851562 -8.175781 8.1875 -7.476562 8.1875 -6.625 L 6.578125 -6.625 C 6.578125 -7.0625 6.390625 -7.4375 6.015625 -7.75 C 5.640625 -8.070312 5.171875 -8.234375 4.609375 -8.234375 C 4.023438 -8.234375 3.566406 -8.101562 3.234375 -7.84375 C 2.910156 -7.59375 2.75 -7.265625 2.75 -6.859375 C 2.75 -6.472656 2.898438 -6.179688 3.203125 -5.984375 C 3.515625 -5.785156 4.066406 -5.59375 4.859375 -5.40625 C 5.660156 -5.226562 6.3125 -5.015625 6.8125 -4.765625 C 7.3125 -4.523438 7.679688 -4.226562 7.921875 -3.875 C 8.160156 -3.53125 8.28125 -3.101562 8.28125 -2.59375 C 8.28125 -1.757812 7.941406 -1.085938 7.265625 -0.578125 C 6.597656 -0.078125 5.726562 0.171875 4.65625 0.171875 C 3.90625 0.171875 3.238281 0.0390625 2.65625 -0.21875 C 2.082031 -0.488281 1.632812 -0.859375 1.3125 -1.328125 C 0.988281 -1.804688 0.828125 -2.328125 0.828125 -2.890625 L 2.421875 -2.890625 C 2.453125 -2.347656 2.664062 -1.921875 3.0625 -1.609375 C 3.46875 -1.296875 4 -1.140625 4.65625 -1.140625 C 5.269531 -1.140625 5.757812 -1.257812 6.125 -1.5 C 6.488281 -1.75 6.671875 -2.078125 6.671875 -2.484375 Z M 6.671875 -2.484375 "/></g></g><g transform="translate(257.6774, 221.05363)"><g><path d="M 5.109375 0.171875 C 3.835938 0.171875 2.800781 -0.242188 2 -1.078125 C 1.207031 -1.910156 0.8125 -3.023438 0.8125 -4.421875 L 0.8125 -4.71875 C 0.8125 -5.65625 0.988281 -6.488281 1.34375 -7.21875 C 1.695312 -7.945312 2.191406 -8.515625 2.828125 -8.921875 C 3.460938 -9.335938 4.15625 -9.546875 4.90625 -9.546875 C 6.125 -9.546875 7.070312 -9.144531 7.75 -8.34375 C 8.425781 -7.539062 8.765625 -6.390625 8.765625 -4.890625 L 8.765625 -4.234375 L 2.40625 -4.234375 C 2.425781 -3.304688 2.695312 -2.554688 3.21875 -1.984375 C 3.738281 -1.421875 4.394531 -1.140625 5.1875 -1.140625 C 5.757812 -1.140625 6.238281 -1.253906 6.625 -1.484375 C 7.019531 -1.710938 7.363281 -2.019531 7.65625 -2.40625 L 8.640625 -1.640625 C 7.859375 -0.429688 6.679688 0.171875 5.109375 0.171875 Z M 4.90625 -8.234375 C 4.257812 -8.234375 3.71875 -8 3.28125 -7.53125 C 2.84375 -7.0625 2.570312 -6.398438 2.46875 -5.546875 L 7.15625 -5.546875 L 7.15625 -5.671875 C 7.113281 -6.484375 6.894531 -7.113281 6.5 -7.5625 C 6.101562 -8.007812 5.570312 -8.234375 4.90625 -8.234375 Z M 4.90625 -8.234375 "/></g></g><g transform="translate(267.084883, 221.05363)"><g><path d="M 2.734375 -9.375 L 2.78125 -8.203125 C 3.5 -9.097656 4.4375 -9.546875 5.59375 -9.546875 C 7.570312 -9.546875 8.570312 -8.429688 8.59375 -6.203125 L 8.59375 0 L 6.984375 0 L 6.984375 -6.203125 C 6.984375 -6.878906 6.828125 -7.378906 6.515625 -7.703125 C 6.210938 -8.023438 5.742188 -8.1875 5.109375 -8.1875 C 4.585938 -8.1875 4.128906 -8.046875 3.734375 -7.765625 C 3.335938 -7.492188 3.03125 -7.132812 2.8125 -6.6875 L 2.8125 0 L 1.21875 0 L 1.21875 -9.375 Z M 2.734375 -9.375 "/></g></g><g transform="translate(276.882537, 221.05363)"><g><path d="M 6.671875 -2.484375 C 6.671875 -2.921875 6.503906 -3.257812 6.171875 -3.5 C 5.847656 -3.738281 5.28125 -3.941406 4.46875 -4.109375 C 3.664062 -4.285156 3.023438 -4.492188 2.546875 -4.734375 C 2.066406 -4.984375 1.710938 -5.273438 1.484375 -5.609375 C 1.253906 -5.941406 1.140625 -6.335938 1.140625 -6.796875 C 1.140625 -7.566406 1.460938 -8.21875 2.109375 -8.75 C 2.765625 -9.28125 3.597656 -9.546875 4.609375 -9.546875 C 5.671875 -9.546875 6.53125 -9.269531 7.1875 -8.71875 C 7.851562 -8.175781 8.1875 -7.476562 8.1875 -6.625 L 6.578125 -6.625 C 6.578125 -7.0625 6.390625 -7.4375 6.015625 -7.75 C 5.640625 -8.070312 5.171875 -8.234375 4.609375 -8.234375 C 4.023438 -8.234375 3.566406 -8.101562 3.234375 -7.84375 C 2.910156 -7.59375 2.75 -7.265625 2.75 -6.859375 C 2.75 -6.472656 2.898438 -6.179688 3.203125 -5.984375 C 3.515625 -5.785156 4.066406 -5.59375 4.859375 -5.40625 C 5.660156 -5.226562 6.3125 -5.015625 6.8125 -4.765625 C 7.3125 -4.523438 7.679688 -4.226562 7.921875 -3.875 C 8.160156 -3.53125 8.28125 -3.101562 8.28125 -2.59375 C 8.28125 -1.757812 7.941406 -1.085938 7.265625 -0.578125 C 6.597656 -0.078125 5.726562 0.171875 4.65625 0.171875 C 3.90625 0.171875 3.238281 0.0390625 2.65625 -0.21875 C 2.082031 -0.488281 1.632812 -0.859375 1.3125 -1.328125 C 0.988281 -1.804688 0.828125 -2.328125 0.828125 -2.890625 L 2.421875 -2.890625 C 2.453125 -2.347656 2.664062 -1.921875 3.0625 -1.609375 C 3.46875 -1.296875 4 -1.140625 4.65625 -1.140625 C 5.269531 -1.140625 5.757812 -1.257812 6.125 -1.5 C 6.488281 -1.75 6.671875 -2.078125 6.671875 -2.484375 Z M 6.671875 -2.484375 "/></g></g><g transform="translate(286.038575, 221.05363)"><g><path d="M 7 0 C 6.90625 -0.1875 6.832031 -0.515625 6.78125 -0.984375 C 6.03125 -0.210938 5.140625 0.171875 4.109375 0.171875 C 3.179688 0.171875 2.421875 -0.0859375 1.828125 -0.609375 C 1.234375 -1.128906 0.9375 -1.789062 0.9375 -2.59375 C 0.9375 -3.570312 1.304688 -4.332031 2.046875 -4.875 C 2.796875 -5.414062 3.84375 -5.6875 5.1875 -5.6875 L 6.75 -5.6875 L 6.75 -6.421875 C 6.75 -6.984375 6.582031 -7.429688 6.25 -7.765625 C 5.914062 -8.097656 5.421875 -8.265625 4.765625 -8.265625 C 4.191406 -8.265625 3.710938 -8.117188 3.328125 -7.828125 C 2.941406 -7.535156 2.75 -7.1875 2.75 -6.78125 L 1.140625 -6.78125 C 1.140625 -7.25 1.300781 -7.695312 1.625 -8.125 C 1.957031 -8.5625 2.410156 -8.90625 2.984375 -9.15625 C 3.554688 -9.414062 4.179688 -9.546875 4.859375 -9.546875 C 5.941406 -9.546875 6.789062 -9.273438 7.40625 -8.734375 C 8.019531 -8.203125 8.335938 -7.460938 8.359375 -6.515625 L 8.359375 -2.1875 C 8.359375 -1.332031 8.46875 -0.648438 8.6875 -0.140625 L 8.6875 0 Z M 4.34375 -1.21875 C 4.84375 -1.21875 5.316406 -1.347656 5.765625 -1.609375 C 6.222656 -1.867188 6.550781 -2.207031 6.75 -2.625 L 6.75 -4.546875 L 5.5 -4.546875 C 3.53125 -4.546875 2.546875 -3.972656 2.546875 -2.828125 C 2.546875 -2.328125 2.710938 -1.929688 3.046875 -1.640625 C 3.378906 -1.359375 3.8125 -1.21875 4.34375 -1.21875 Z M 4.34375 -1.21875 "/></g></g><g transform="translate(295.697501, 221.05363)"><g><path d="M 4.96875 -1.140625 C 5.539062 -1.140625 6.039062 -1.3125 6.46875 -1.65625 C 6.894531 -2 7.132812 -2.429688 7.1875 -2.953125 L 8.703125 -2.953125 C 8.671875 -2.421875 8.484375 -1.910156 8.140625 -1.421875 C 7.804688 -0.929688 7.351562 -0.539062 6.78125 -0.25 C 6.207031 0.03125 5.601562 0.171875 4.96875 0.171875 C 3.695312 0.171875 2.679688 -0.253906 1.921875 -1.109375 C 1.171875 -1.960938 0.796875 -3.128906 0.796875 -4.609375 L 0.796875 -4.875 C 0.796875 -5.78125 0.960938 -6.585938 1.296875 -7.296875 C 1.628906 -8.015625 2.109375 -8.566406 2.734375 -8.953125 C 3.367188 -9.347656 4.113281 -9.546875 4.96875 -9.546875 C 6.019531 -9.546875 6.890625 -9.226562 7.578125 -8.59375 C 8.273438 -7.96875 8.648438 -7.15625 8.703125 -6.15625 L 7.1875 -6.15625 C 7.132812 -6.757812 6.898438 -7.253906 6.484375 -7.640625 C 6.078125 -8.035156 5.570312 -8.234375 4.96875 -8.234375 C 4.15625 -8.234375 3.523438 -7.9375 3.078125 -7.34375 C 2.628906 -6.757812 2.40625 -5.914062 2.40625 -4.8125 L 2.40625 -4.5 C 2.40625 -3.425781 2.625 -2.597656 3.0625 -2.015625 C 3.507812 -1.429688 4.144531 -1.140625 4.96875 -1.140625 Z M 5.234375 0.078125 L 5.125 0.53125 C 6.007812 0.6875 6.453125 1.1875 6.453125 2.03125 C 6.453125 2.59375 6.222656 3.035156 5.765625 3.359375 C 5.304688 3.679688 4.660156 3.84375 3.828125 3.84375 L 3.765625 2.921875 C 4.222656 2.921875 4.578125 2.84375 4.828125 2.6875 C 5.078125 2.539062 5.203125 2.332031 5.203125 2.0625 C 5.203125 1.8125 5.109375 1.625 4.921875 1.5 C 4.742188 1.375 4.375 1.285156 3.8125 1.234375 L 4.078125 0.078125 Z M 5.234375 0.078125 "/></g></g><g transform="translate(304.992267, 221.05363)"><g><path d="M 0.78125 -4.78125 C 0.78125 -5.695312 0.960938 -6.519531 1.328125 -7.25 C 1.691406 -7.988281 2.195312 -8.554688 2.84375 -8.953125 C 3.488281 -9.347656 4.222656 -9.546875 5.046875 -9.546875 C 6.316406 -9.546875 7.347656 -9.101562 8.140625 -8.21875 C 8.929688 -7.34375 9.328125 -6.171875 9.328125 -4.703125 L 9.328125 -4.578125 C 9.328125 -3.671875 9.148438 -2.851562 8.796875 -2.125 C 8.453125 -1.40625 7.953125 -0.84375 7.296875 -0.4375 C 6.648438 -0.03125 5.90625 0.171875 5.0625 0.171875 C 3.789062 0.171875 2.757812 -0.269531 1.96875 -1.15625 C 1.175781 -2.039062 0.78125 -3.207031 0.78125 -4.65625 Z M 2.40625 -4.578125 C 2.40625 -3.546875 2.644531 -2.710938 3.125 -2.078125 C 3.601562 -1.453125 4.25 -1.140625 5.0625 -1.140625 C 5.875 -1.140625 6.519531 -1.457031 7 -2.09375 C 7.476562 -2.726562 7.71875 -3.625 7.71875 -4.78125 C 7.71875 -5.800781 7.472656 -6.628906 6.984375 -7.265625 C 6.492188 -7.910156 5.847656 -8.234375 5.046875 -8.234375 C 4.253906 -8.234375 3.613281 -7.914062 3.125 -7.28125 C 2.644531 -6.65625 2.40625 -5.753906 2.40625 -4.578125 Z M 8.046875 -13.03125 C 8.046875 -12.40625 7.867188 -11.898438 7.515625 -11.515625 C 7.160156 -11.128906 6.71875 -10.9375 6.1875 -10.9375 C 5.945312 -10.9375 5.738281 -10.960938 5.5625 -11.015625 C 5.394531 -11.078125 5.171875 -11.195312 4.890625 -11.375 C 4.609375 -11.550781 4.40625 -11.65625 4.28125 -11.6875 C 4.15625 -11.726562 4.015625 -11.75 3.859375 -11.75 C 3.617188 -11.75 3.414062 -11.660156 3.25 -11.484375 C 3.082031 -11.304688 3 -11.070312 3 -10.78125 L 1.921875 -10.84375 C 1.921875 -11.46875 2.09375 -11.976562 2.4375 -12.375 C 2.789062 -12.78125 3.238281 -12.984375 3.78125 -12.984375 C 3.976562 -12.984375 4.15625 -12.953125 4.3125 -12.890625 C 4.476562 -12.835938 4.703125 -12.726562 4.984375 -12.5625 C 5.265625 -12.394531 5.476562 -12.285156 5.625 -12.234375 C 5.769531 -12.179688 5.929688 -12.15625 6.109375 -12.15625 C 6.359375 -12.15625 6.566406 -12.253906 6.734375 -12.453125 C 6.898438 -12.648438 6.984375 -12.878906 6.984375 -13.140625 Z M 8.046875 -13.03125 "/></g></g><g transform="translate(315.1194, 221.05363)"><g><path d="M 5.109375 0.171875 C 3.835938 0.171875 2.800781 -0.242188 2 -1.078125 C 1.207031 -1.910156 0.8125 -3.023438 0.8125 -4.421875 L 0.8125 -4.71875 C 0.8125 -5.65625 0.988281 -6.488281 1.34375 -7.21875 C 1.695312 -7.945312 2.191406 -8.515625 2.828125 -8.921875 C 3.460938 -9.335938 4.15625 -9.546875 4.90625 -9.546875 C 6.125 -9.546875 7.070312 -9.144531 7.75 -8.34375 C 8.425781 -7.539062 8.765625 -6.390625 8.765625 -4.890625 L 8.765625 -4.234375 L 2.40625 -4.234375 C 2.425781 -3.304688 2.695312 -2.554688 3.21875 -1.984375 C 3.738281 -1.421875 4.394531 -1.140625 5.1875 -1.140625 C 5.757812 -1.140625 6.238281 -1.253906 6.625 -1.484375 C 7.019531 -1.710938 7.363281 -2.019531 7.65625 -2.40625 L 8.640625 -1.640625 C 7.859375 -0.429688 6.679688 0.171875 5.109375 0.171875 Z M 4.90625 -8.234375 C 4.257812 -8.234375 3.71875 -8 3.28125 -7.53125 C 2.84375 -7.0625 2.570312 -6.398438 2.46875 -5.546875 L 7.15625 -5.546875 L 7.15625 -5.671875 C 7.113281 -6.484375 6.894531 -7.113281 6.5 -7.5625 C 6.101562 -8.007812 5.570312 -8.234375 4.90625 -8.234375 Z M 4.90625 -8.234375 "/></g></g><g transform="translate(324.526882, 221.05363)"><g><path d="M 6.671875 -2.484375 C 6.671875 -2.921875 6.503906 -3.257812 6.171875 -3.5 C 5.847656 -3.738281 5.28125 -3.941406 4.46875 -4.109375 C 3.664062 -4.285156 3.023438 -4.492188 2.546875 -4.734375 C 2.066406 -4.984375 1.710938 -5.273438 1.484375 -5.609375 C 1.253906 -5.941406 1.140625 -6.335938 1.140625 -6.796875 C 1.140625 -7.566406 1.460938 -8.21875 2.109375 -8.75 C 2.765625 -9.28125 3.597656 -9.546875 4.609375 -9.546875 C 5.671875 -9.546875 6.53125 -9.269531 7.1875 -8.71875 C 7.851562 -8.175781 8.1875 -7.476562 8.1875 -6.625 L 6.578125 -6.625 C 6.578125 -7.0625 6.390625 -7.4375 6.015625 -7.75 C 5.640625 -8.070312 5.171875 -8.234375 4.609375 -8.234375 C 4.023438 -8.234375 3.566406 -8.101562 3.234375 -7.84375 C 2.910156 -7.59375 2.75 -7.265625 2.75 -6.859375 C 2.75 -6.472656 2.898438 -6.179688 3.203125 -5.984375 C 3.515625 -5.785156 4.066406 -5.59375 4.859375 -5.40625 C 5.660156 -5.226562 6.3125 -5.015625 6.8125 -4.765625 C 7.3125 -4.523438 7.679688 -4.226562 7.921875 -3.875 C 8.160156 -3.53125 8.28125 -3.101562 8.28125 -2.59375 C 8.28125 -1.757812 7.941406 -1.085938 7.265625 -0.578125 C 6.597656 -0.078125 5.726562 0.171875 4.65625 0.171875 C 3.90625 0.171875 3.238281 0.0390625 2.65625 -0.21875 C 2.082031 -0.488281 1.632812 -0.859375 1.3125 -1.328125 C 0.988281 -1.804688 0.828125 -2.328125 0.828125 -2.890625 L 2.421875 -2.890625 C 2.453125 -2.347656 2.664062 -1.921875 3.0625 -1.609375 C 3.46875 -1.296875 4 -1.140625 4.65625 -1.140625 C 5.269531 -1.140625 5.757812 -1.257812 6.125 -1.5 C 6.488281 -1.75 6.671875 -2.078125 6.671875 -2.484375 Z M 6.671875 -2.484375 "/></g></g><g transform="translate(333.68292, 221.05363)"><g><path d="M 3 -3.5625 L 1.5625 -3.5625 L 1.453125 -12.625 L 3.125 -12.625 Z M 1.390625 -0.8125 C 1.390625 -1.070312 1.46875 -1.285156 1.625 -1.453125 C 1.78125 -1.628906 2.015625 -1.71875 2.328125 -1.71875 C 2.640625 -1.71875 2.875 -1.628906 3.03125 -1.453125 C 3.195312 -1.285156 3.28125 -1.070312 3.28125 -0.8125 C 3.28125 -0.550781 3.195312 -0.332031 3.03125 -0.15625 C 2.875 0.0078125 2.640625 0.09375 2.328125 0.09375 C 2.015625 0.09375 1.78125 0.0078125 1.625 -0.15625 C 1.46875 -0.332031 1.390625 -0.550781 1.390625 -0.8125 Z M 1.390625 -0.8125 "/></g></g></g></svg>