<svg xmlns="http://www.w3.org/2000/svg" xmlns:xlink="http://www.w3.org/1999/xlink" width="500" zoomAndPan="magnify" viewBox="0 0 375 374.999991" height="500" preserveAspectRatio="xMidYMid meet" version="1.0"><defs><filter x="0%" y="0%" width="100%" height="100%" id="fd76098355"><feColorMatrix values="0 0 0 0 1 0 0 0 0 1 0 0 0 0 1 0 0 0 1 0" color-interpolation-filters="sRGB"/></filter><g/><clipPath id="7ba2a50490"><path d="M 176.113281 33.113281 L 198.328125 33.113281 L 198.328125 55.328125 L 176.113281 55.328125 Z M 176.113281 33.113281 " clip-rule="nonzero"/></clipPath><clipPath id="981b671611"><path d="M 176.113281 319.117188 L 198.328125 319.117188 L 198.328125 341.332031 L 176.113281 341.332031 Z M 176.113281 319.117188 " clip-rule="nonzero"/></clipPath><mask id="36619bfa06"><g filter="url(#fd76098355)"><rect x="-37.5" width="450" fill="#000000" y="-37.499999" height="449.999989" fill-opacity="0.6"/></g></mask><clipPath id="14b63b2227"><path d="M 0.578125 1.082031 L 234.421875 1.082031 L 234.421875 232.585938 L 0.578125 232.585938 Z M 0.578125 1.082031 " clip-rule="nonzero"/></clipPath><clipPath id="c6f63bd019"><rect x="0" width="235" y="0" height="233"/></clipPath></defs><g clip-path="url(#7ba2a50490)"><path fill="#efebe2" d="M 187.222656 33.113281 C 186.140625 42.261719 185.261719 43.136719 176.113281 44.222656 C 176.132812 44.222656 176.152344 44.226562 176.171875 44.226562 C 185.265625 45.308594 186.140625 46.199219 187.222656 55.328125 C 188.304688 46.179688 189.183594 45.304688 198.328125 44.222656 C 189.183594 43.136719 188.304688 42.261719 187.222656 33.113281 Z M 187.222656 33.113281 " fill-opacity="1" fill-rule="nonzero"/></g><g clip-path="url(#981b671611)"><path fill="#efebe2" d="M 187.222656 319.117188 C 186.140625 328.261719 185.261719 329.140625 176.113281 330.222656 C 176.132812 330.226562 176.152344 330.226562 176.171875 330.230469 C 185.265625 331.308594 186.140625 332.203125 187.222656 341.332031 C 188.304688 332.183594 189.183594 331.304688 198.328125 330.222656 C 189.183594 329.140625 188.304688 328.261719 187.222656 319.117188 Z M 187.222656 319.117188 " fill-opacity="1" fill-rule="nonzero"/></g><g mask="url(#36619bfa06)"><g transform="matrix(1, 0, 0, 1, 70, 70)"><g clip-path="url(#c6f63bd019)"><path fill="#ffffff" d="M 164.515625 121.402344 C 164.1875 126.269531 163.007812 130.9375 161.167969 135.40625 C 159.261719 140.140625 156.570312 144.414062 153.222656 148.296875 C 149.152344 153.027344 144.292969 156.710938 138.777344 159.472656 C 133.785156 161.972656 128.464844 163.417969 122.882812 164.007812 C 113.230469 164.996094 104.167969 163.089844 95.632812 158.421875 C 93.597656 157.300781 91.5625 156.183594 89.921875 154.542969 C 88.082031 153.421875 86.503906 151.910156 84.996094 150.332031 C 81.316406 146.519531 78.296875 142.3125 76.128906 137.511719 C 74.09375 133.042969 72.714844 128.308594 72.191406 123.375 C 72.125 123.046875 72.058594 122.652344 71.992188 122.324219 C 71.730469 122.191406 71.730469 122.0625 71.992188 121.863281 C 71.46875 115.945312 72.125 110.09375 73.832031 104.375 C 75.605469 98.457031 78.363281 93.132812 82.304688 88.464844 C 86.964844 82.941406 92.414062 78.339844 99.046875 75.378906 C 103.644531 73.339844 108.4375 71.828125 113.558594 71.632812 C 113.757812 71.367188 113.886719 71.039062 114.28125 71.433594 C 116.910156 71.238281 119.46875 71.171875 122.097656 71.433594 C 122.492188 71.039062 122.6875 71.238281 122.882812 71.632812 C 123.410156 71.632812 123.933594 71.632812 124.527344 71.699219 C 124.855469 71.367188 124.921875 71.632812 125.050781 71.894531 C 128.664062 72.15625 132.078125 73.210938 135.359375 74.523438 C 142.125 77.21875 147.96875 81.230469 152.828125 86.621094 C 154.46875 88.398438 156.046875 90.238281 157.164062 92.472656 C 159 94.839844 160.25 97.601562 161.363281 100.363281 C 162.941406 104.113281 163.992188 108.058594 164.386719 112.066406 C 164.714844 115.09375 164.78125 118.246094 164.515625 121.402344 Z M 164.515625 121.402344 " fill-opacity="1" fill-rule="nonzero"/><path fill="#ffffff" d="M 157.164062 92.410156 C 157.164062 92.933594 156.703125 93.261719 156.375 93.527344 C 152.367188 97.140625 148.429688 100.757812 144.292969 104.242188 C 141.269531 106.808594 138.449219 109.4375 135.492188 112.066406 C 130.960938 116.078125 126.363281 120.089844 121.832031 124.164062 C 118.484375 127.191406 115.136719 130.28125 111.917969 133.371094 C 108.570312 136.589844 105.21875 139.8125 101.871094 142.96875 C 98.0625 146.585938 94.320312 150.332031 90.578125 154.015625 C 90.378906 154.148438 90.183594 154.277344 90.050781 154.476562 C 88.214844 153.359375 86.636719 151.84375 85.125 150.265625 C 81.449219 146.453125 78.429688 142.246094 76.261719 137.445312 C 74.226562 132.976562 72.847656 128.242188 72.320312 123.308594 C 72.257812 122.980469 72.191406 122.585938 72.125 122.257812 C 72.320312 122.0625 72.320312 121.929688 72.125 121.796875 C 71.597656 115.878906 72.257812 110.027344 73.964844 104.308594 C 75.738281 98.390625 78.496094 93.066406 82.433594 88.398438 C 87.097656 82.875 92.546875 78.273438 99.179688 75.3125 C 103.777344 73.277344 108.570312 71.761719 113.691406 71.566406 C 113.953125 71.566406 114.214844 71.632812 114.414062 71.367188 C 117.039062 71.171875 119.601562 71.105469 122.226562 71.367188 C 122.425781 71.632812 122.6875 71.566406 123.015625 71.566406 C 123.542969 71.566406 124.066406 71.566406 124.65625 71.632812 C 124.789062 71.828125 124.984375 71.828125 125.183594 71.828125 C 128.792969 72.09375 132.210938 73.144531 135.492188 74.460938 C 142.257812 77.15625 148.101562 81.164062 152.960938 86.558594 C 154.402344 88.398438 156.046875 90.238281 157.164062 92.410156 Z M 157.164062 92.410156 " fill-opacity="1" fill-rule="nonzero"/><g clip-path="url(#14b63b2227)"><path fill="#ffffff" d="M 233.007812 143.101562 C 232.546875 142.96875 232.085938 142.773438 231.691406 142.640625 C 223.089844 140.011719 214.488281 137.445312 205.953125 134.816406 C 205.03125 134.554688 204.769531 134.160156 204.96875 133.238281 C 205.296875 131.660156 205.625 130.082031 205.820312 128.503906 C 205.953125 127.585938 206.28125 127.386719 207.132812 127.519531 C 211.796875 128.375 216.394531 129.160156 221.054688 130.015625 C 222.5 130.28125 223.945312 130.542969 225.390625 130.738281 C 226.242188 130.871094 226.964844 130.609375 227.097656 129.6875 C 227.226562 128.832031 226.636719 128.375 225.847656 128.242188 C 225.390625 128.109375 224.929688 128.042969 224.46875 127.980469 C 218.757812 126.992188 212.976562 125.941406 207.265625 124.953125 C 206.609375 124.824219 206.28125 124.625 206.347656 123.902344 C 206.542969 121.996094 206.675781 120.15625 206.738281 118.246094 C 206.738281 117.722656 206.9375 117.457031 207.527344 117.457031 C 208.839844 117.523438 210.15625 117.523438 211.402344 117.589844 C 213.699219 117.722656 215.933594 117.851562 218.230469 117.851562 C 219.019531 117.851562 219.742188 117.589844 219.808594 116.605469 C 219.808594 115.617188 219.085938 115.421875 218.296875 115.355469 C 217.050781 115.289062 215.800781 115.15625 214.554688 115.15625 C 212.320312 115.027344 210.15625 114.960938 207.921875 114.894531 C 207.199219 114.894531 206.738281 114.632812 206.804688 113.777344 C 206.804688 111.671875 206.675781 109.632812 206.410156 107.53125 C 206.347656 107.003906 206.476562 106.609375 207.132812 106.609375 C 207.988281 106.542969 208.839844 106.480469 209.695312 106.414062 C 215.539062 106.019531 221.382812 105.625 227.226562 105.164062 C 228.738281 105.03125 230.183594 104.902344 231.691406 104.703125 C 232.414062 104.636719 233.070312 104.308594 233.007812 103.453125 C 232.941406 102.597656 232.285156 102.402344 231.5625 102.402344 C 230.511719 102.402344 229.460938 102.402344 228.34375 102.46875 C 225.519531 102.664062 222.695312 102.863281 219.871094 103.125 C 215.605469 103.453125 211.335938 103.71875 207.066406 104.046875 C 206.347656 104.113281 205.953125 103.914062 205.886719 103.125 C 205.753906 101.875 205.558594 100.628906 205.296875 99.378906 C 205.164062 98.65625 205.359375 98.390625 206.082031 98.324219 C 209.367188 97.800781 212.585938 97.273438 215.867188 96.683594 C 217.574219 96.417969 219.28125 96.089844 220.988281 95.761719 C 221.710938 95.628906 222.367188 95.171875 222.171875 94.316406 C 222.039062 93.460938 221.382812 93.199219 220.59375 93.199219 C 220.136719 93.199219 219.675781 93.199219 219.152344 93.328125 C 214.621094 94.117188 210.089844 94.90625 205.558594 95.695312 C 204.769531 95.828125 204.507812 95.5625 204.308594 94.90625 C 203.585938 91.949219 202.734375 89.054688 201.75 86.164062 C 201.488281 85.503906 201.683594 85.175781 202.339844 84.914062 C 203.457031 84.519531 204.574219 84.125 205.625 83.664062 C 207.132812 83.007812 207.660156 82.347656 207.332031 81.496094 C 207.003906 80.640625 206.082031 80.441406 204.636719 80.96875 C 203.523438 81.363281 202.40625 81.691406 201.289062 82.152344 C 200.566406 82.414062 200.238281 82.28125 199.910156 81.625 C 199.320312 80.179688 198.730469 78.796875 198.007812 77.417969 C 197.546875 76.5625 197.679688 76.167969 198.53125 75.773438 C 207.003906 71.632812 215.472656 67.425781 223.945312 63.214844 C 224.996094 62.691406 226.046875 62.164062 227.097656 61.570312 C 227.949219 61.113281 228.671875 60.390625 228.082031 59.402344 C 227.554688 58.480469 226.636719 58.679688 225.78125 59.074219 C 223.878906 59.929688 221.972656 60.785156 220.136719 61.703125 C 212.453125 65.453125 204.769531 69.265625 197.152344 73.078125 C 196.300781 73.539062 195.839844 73.40625 195.445312 72.550781 C 194.460938 70.644531 193.34375 68.738281 192.03125 67.03125 C 191.375 66.109375 191.503906 65.648438 192.359375 64.992188 C 198.464844 60.585938 204.574219 56.113281 210.679688 51.644531 C 211.269531 51.25 211.863281 50.789062 212.320312 50.328125 C 212.78125 49.867188 212.914062 49.277344 212.519531 48.75 C 212.125 48.226562 211.535156 48.160156 210.941406 48.421875 C 210.613281 48.621094 210.351562 48.75 210.023438 48.949219 C 207.789062 50.527344 205.492188 52.105469 203.257812 53.683594 C 198.992188 56.707031 194.789062 59.664062 190.519531 62.691406 C 189.929688 63.085938 189.46875 63.28125 188.945312 62.625 C 187.433594 60.652344 185.921875 58.679688 184.214844 56.902344 C 183.824219 56.445312 183.691406 56.113281 184.214844 55.589844 C 186.582031 53.355469 188.878906 51.050781 191.242188 48.75 C 192.621094 47.371094 194 46.054688 195.378906 44.675781 C 195.90625 44.148438 196.234375 43.425781 195.578125 42.769531 C 194.984375 42.175781 194.261719 42.308594 193.671875 42.832031 C 193.210938 43.226562 192.6875 43.6875 192.292969 44.082031 C 189.011719 47.238281 185.660156 50.394531 182.378906 53.550781 C 181.917969 54.011719 181.589844 54.011719 181.128906 53.550781 C 180.34375 52.695312 179.488281 51.839844 178.570312 51.050781 C 177.714844 50.328125 177.78125 49.804688 178.503906 49.015625 C 183.558594 43.226562 188.550781 37.375 193.539062 31.523438 C 195.3125 29.421875 197.085938 27.316406 198.859375 25.214844 C 199.449219 24.554688 199.648438 23.765625 198.925781 23.109375 C 198.203125 22.453125 197.480469 22.847656 196.890625 23.304688 C 196.234375 23.898438 195.707031 24.554688 195.117188 25.214844 C 191.308594 29.550781 187.5 33.890625 183.691406 38.296875 C 181.066406 41.253906 178.503906 44.214844 175.875 47.171875 C 175.351562 47.765625 175.023438 47.898438 174.367188 47.304688 C 173.183594 46.320312 171.9375 45.398438 170.6875 44.476562 C 170.03125 44.015625 169.96875 43.558594 170.425781 42.898438 C 172.132812 40.46875 173.777344 37.96875 175.484375 35.46875 C 176.796875 33.5625 178.109375 31.589844 179.355469 29.683594 C 179.816406 28.960938 180.34375 28.105469 179.355469 27.515625 C 178.503906 26.988281 177.78125 27.582031 177.320312 28.304688 C 177.058594 28.699219 176.796875 29.09375 176.535156 29.488281 C 173.777344 33.433594 171.019531 37.441406 168.195312 41.386719 C 167.867188 41.847656 167.601562 42.242188 166.945312 41.847656 C 165.238281 40.796875 163.53125 39.742188 161.824219 38.691406 C 161.300781 38.363281 161.234375 38.035156 161.5625 37.507812 C 162.808594 35.207031 164.058594 32.839844 165.304688 30.539062 C 166.421875 28.5 167.472656 26.460938 168.589844 24.359375 C 168.917969 23.699219 168.980469 23.109375 168.257812 22.714844 C 167.539062 22.320312 167.078125 22.78125 166.683594 23.304688 C 166.488281 23.570312 166.355469 23.832031 166.222656 24.160156 C 164.121094 28.105469 161.957031 31.984375 159.855469 35.929688 C 159.328125 36.980469 158.804688 37.113281 157.753906 36.523438 C 156.636719 35.863281 155.390625 35.273438 154.140625 34.8125 C 153.089844 34.417969 153.023438 34.023438 153.417969 33.039062 C 156.375 26.066406 159.261719 19.097656 162.019531 11.996094 C 162.546875 10.75 163.070312 9.433594 163.203125 8.050781 C 163.203125 7.722656 163.269531 7.394531 162.941406 7.199219 C 162.546875 7 162.21875 7.265625 162.019531 7.527344 C 161.691406 7.988281 161.363281 8.511719 161.101562 9.039062 C 159.984375 11.40625 158.871094 13.839844 157.820312 16.269531 C 155.585938 21.464844 153.351562 26.660156 151.121094 31.917969 C 150.660156 32.972656 150.203125 33.167969 149.152344 32.773438 C 147.835938 32.183594 146.457031 31.722656 145.015625 31.328125 C 143.964844 31.066406 143.699219 30.671875 144.027344 29.617188 C 146.195312 23.042969 147.902344 16.269531 149.742188 9.628906 C 150.398438 7.328125 151.121094 5.027344 151.1875 2.59375 C 151.1875 2.136719 151.1875 1.675781 150.660156 1.542969 C 150.136719 1.410156 149.808594 1.742188 149.609375 2.136719 C 149.085938 2.988281 148.691406 3.976562 148.363281 4.960938 C 145.605469 12.917969 143.371094 21.003906 140.878906 29.027344 C 140.613281 29.882812 140.285156 30.078125 139.433594 29.816406 C 137.921875 29.421875 136.347656 29.09375 134.835938 28.828125 C 133.980469 28.699219 133.785156 28.367188 133.917969 27.582031 C 134.375 25.34375 134.769531 23.109375 135.164062 20.875 C 135.492188 18.835938 135.886719 16.796875 136.019531 14.691406 C 136.019531 14.101562 136.019531 13.445312 135.230469 13.246094 C 134.441406 13.050781 134.113281 13.707031 133.917969 14.296875 C 133.71875 14.824219 133.589844 15.351562 133.457031 15.875 C 132.539062 19.492188 131.816406 23.175781 131.09375 26.855469 C 130.960938 27.515625 130.960938 28.238281 129.84375 28.105469 C 127.875 27.84375 125.972656 27.515625 124 27.515625 C 122.6875 27.515625 122.554688 26.988281 122.621094 25.871094 C 122.882812 18.574219 123.277344 11.273438 123.148438 3.976562 C 123.148438 3.320312 123.148438 2.660156 122.882812 2.003906 C 122.753906 1.542969 122.492188 1.214844 121.964844 1.148438 C 121.375 1.082031 121.113281 1.476562 120.914062 1.9375 C 120.652344 2.59375 120.519531 3.320312 120.453125 4.042969 C 120.0625 8.839844 119.863281 13.640625 119.734375 18.441406 C 119.667969 21.070312 119.46875 23.636719 119.402344 26.199219 C 119.402344 27.054688 119.074219 27.382812 118.222656 27.382812 C 116.582031 27.316406 115.003906 27.382812 113.363281 27.449219 C 112.640625 27.515625 112.3125 27.1875 112.246094 26.460938 C 111.917969 23.4375 111.589844 20.347656 111.261719 17.324219 C 111.066406 15.746094 110.800781 14.234375 110.472656 12.65625 C 110.40625 12.128906 110.078125 11.601562 109.488281 11.601562 C 108.832031 11.601562 108.570312 12.195312 108.503906 12.785156 C 108.4375 13.378906 108.4375 14.035156 108.503906 14.691406 C 108.832031 18.835938 109.160156 22.910156 109.488281 27.054688 C 109.554688 27.644531 109.292969 27.777344 108.765625 27.84375 C 107.519531 27.972656 106.269531 28.105469 105.023438 28.304688 C 104.167969 28.433594 103.777344 28.171875 103.644531 27.316406 C 103.121094 24.160156 102.527344 20.9375 101.9375 17.785156 C 101.542969 15.746094 101.214844 13.640625 100.625 11.667969 C 100.425781 11.144531 100.230469 10.417969 99.441406 10.550781 C 98.71875 10.683594 98.652344 11.339844 98.652344 11.933594 C 98.652344 12.589844 98.71875 13.179688 98.785156 13.839844 C 99.507812 18.507812 100.230469 23.175781 100.953125 27.84375 C 101.082031 28.699219 100.820312 29.027344 99.96875 29.222656 C 98.851562 29.421875 97.734375 29.683594 96.617188 29.945312 C 94.058594 30.605469 94.058594 30.539062 93.335938 28.039062 C 91.035156 20.28125 88.871094 12.523438 86.242188 4.898438 C 85.914062 3.910156 85.519531 2.988281 84.996094 2.070312 C 84.734375 1.675781 84.40625 1.347656 83.945312 1.542969 C 83.484375 1.675781 83.484375 2.136719 83.417969 2.53125 C 83.355469 3.648438 83.617188 4.699219 83.878906 5.816406 C 85.914062 14.101562 88.410156 22.1875 90.839844 30.40625 C 91.101562 31.261719 90.972656 31.65625 90.050781 31.917969 C 88.410156 32.445312 86.835938 33.039062 85.324219 33.695312 C 84.535156 34.023438 84.273438 33.761719 84.011719 33.101562 C 81.644531 27.449219 79.214844 21.792969 76.789062 16.140625 C 75.605469 13.378906 74.488281 10.617188 72.914062 8.050781 C 72.648438 7.59375 72.386719 7 71.730469 7.265625 C 71.140625 7.527344 71.335938 8.183594 71.46875 8.644531 C 71.796875 9.828125 72.191406 11.011719 72.648438 12.128906 C 75.472656 19.492188 78.496094 26.792969 81.582031 34.023438 C 81.976562 34.945312 81.777344 35.273438 80.925781 35.601562 C 79.546875 36.191406 78.230469 36.851562 76.917969 37.640625 C 76.195312 38.035156 75.867188 37.96875 75.472656 37.246094 C 73.109375 32.773438 70.679688 28.367188 68.25 23.964844 C 67.855469 23.242188 67.398438 22.320312 66.410156 22.78125 C 65.359375 23.304688 65.953125 24.160156 66.347656 24.949219 C 66.410156 25.082031 66.476562 25.214844 66.542969 25.34375 C 68.839844 29.617188 71.074219 33.890625 73.4375 38.164062 C 73.898438 39.019531 73.765625 39.480469 72.914062 39.941406 C 71.535156 40.730469 70.15625 41.585938 68.839844 42.570312 C 67.921875 43.226562 67.460938 43.03125 66.871094 42.175781 C 63.785156 37.640625 60.632812 33.167969 57.480469 28.699219 C 56.628906 27.449219 55.773438 27.054688 55.117188 27.578125 C 54.132812 28.5 54.921875 29.289062 55.445312 30.078125 C 58.53125 34.679688 61.617188 39.285156 64.769531 43.886719 C 65.296875 44.609375 65.230469 45.003906 64.507812 45.59375 C 63.457031 46.449219 62.472656 47.371094 61.617188 48.421875 C 60.832031 49.34375 60.371094 49.144531 59.648438 48.355469 C 57.085938 45.003906 54.265625 41.847656 51.503906 38.625 C 47.761719 34.417969 44.085938 30.144531 40.34375 25.9375 C 39.554688 25.015625 38.765625 24.09375 37.847656 23.242188 C 37.257812 22.714844 36.535156 22.386719 35.878906 23.042969 C 35.21875 23.699219 35.417969 24.425781 35.941406 25.082031 C 36.007812 25.214844 36.140625 25.34375 36.269531 25.476562 C 39.816406 29.617188 43.363281 33.828125 46.910156 37.96875 C 50.519531 42.242188 54.199219 46.449219 57.875 50.65625 C 58.402344 51.25 58.402344 51.710938 57.808594 52.234375 C 56.957031 52.960938 56.167969 53.683594 55.378906 54.535156 C 54.722656 55.261719 54.265625 55.261719 53.542969 54.535156 C 49.734375 50.855469 45.925781 47.171875 42.117188 43.558594 C 41.722656 43.164062 41.261719 42.769531 40.738281 42.4375 C 40.210938 42.109375 39.6875 42.175781 39.226562 42.636719 C 38.832031 43.097656 38.832031 43.558594 39.09375 44.082031 C 39.359375 44.476562 39.6875 44.804688 40.015625 45.136719 C 43.953125 48.949219 47.828125 52.828125 51.769531 56.640625 C 52.359375 57.234375 52.492188 57.5625 51.898438 58.285156 C 50.390625 59.996094 49.011719 61.835938 47.632812 63.609375 C 47.105469 64.269531 46.777344 64.398438 46.054688 63.875 C 42.050781 60.980469 37.980469 58.085938 33.90625 55.261719 C 30.886719 53.15625 27.867188 50.988281 24.78125 48.882812 C 24.648438 48.75 24.453125 48.683594 24.320312 48.554688 C 23.597656 48.09375 22.808594 47.765625 22.21875 48.683594 C 21.695312 49.539062 22.21875 50.199219 22.875 50.65625 C 24.125 51.578125 25.304688 52.5 26.554688 53.417969 C 32.398438 57.628906 38.175781 61.902344 44.085938 66.109375 C 45.003906 66.765625 45.136719 67.226562 44.480469 68.148438 C 43.429688 69.726562 42.445312 71.304688 41.523438 72.945312 C 40.605469 74.589844 40.867188 74.589844 39.09375 73.671875 C 30.886719 69.59375 22.679688 65.582031 14.535156 61.507812 C 12.632812 60.585938 10.660156 59.664062 8.757812 58.8125 C 7.96875 58.480469 7.117188 58.480469 6.722656 59.335938 C 6.328125 60.191406 6.722656 60.847656 7.507812 61.308594 C 8.625 61.902344 9.742188 62.558594 10.859375 63.085938 C 19.984375 67.621094 29.113281 72.15625 38.308594 76.628906 C 39.160156 77.023438 39.292969 77.417969 38.898438 78.207031 C 38.242188 79.523438 37.648438 80.835938 37.125 82.21875 C 36.863281 82.941406 36.46875 83.070312 35.8125 82.808594 C 33.972656 82.085938 32.132812 81.492188 30.230469 80.835938 C 28.851562 80.375 27.867188 80.574219 27.667969 81.429688 C 27.339844 82.742188 28.324219 83.136719 29.246094 83.53125 C 31.019531 84.253906 32.855469 84.914062 34.628906 85.570312 C 35.351562 85.832031 35.550781 86.164062 35.285156 86.953125 C 34.367188 89.515625 33.578125 92.078125 32.988281 94.777344 C 32.792969 95.894531 32.265625 96.089844 31.28125 95.894531 C 27.472656 95.167969 23.730469 94.511719 19.921875 93.921875 C 18.082031 93.59375 16.242188 93.132812 14.339844 93.066406 C 13.550781 93.066406 13.027344 93.394531 12.828125 94.117188 C 12.632812 94.90625 13.222656 95.367188 13.878906 95.5625 C 14.667969 95.828125 15.457031 95.957031 16.308594 96.089844 C 21.167969 96.878906 26.09375 97.734375 30.953125 98.523438 C 31.675781 98.65625 32.070312 98.917969 31.9375 99.773438 C 31.742188 100.890625 31.542969 102.007812 31.410156 103.125 C 31.28125 103.78125 30.953125 104.046875 30.296875 103.980469 C 27.339844 103.78125 24.320312 103.585938 21.363281 103.386719 C 15.914062 102.992188 10.464844 102.597656 5.015625 102.203125 C 5.015625 102.203125 5.015625 102.269531 5.015625 102.269531 C 4.359375 102.269531 3.699219 102.203125 2.980469 102.269531 C 2.453125 102.335938 2.058594 102.730469 1.992188 103.257812 C 1.929688 103.78125 2.257812 104.175781 2.78125 104.308594 C 3.042969 104.441406 3.371094 104.507812 3.699219 104.507812 C 8.691406 104.902344 13.683594 105.296875 18.605469 105.691406 C 22.351562 106.019531 26.160156 106.28125 29.902344 106.542969 C 30.753906 106.609375 30.886719 107.003906 30.886719 107.726562 C 30.753906 109.632812 30.625 111.476562 30.625 113.382812 C 30.625 114.238281 30.230469 114.433594 29.507812 114.433594 C 26.027344 114.566406 22.613281 114.761719 19.132812 114.894531 C 18.277344 114.960938 17.425781 115.027344 16.570312 115.09375 C 15.914062 115.15625 15.324219 115.421875 15.257812 116.210938 C 15.191406 117.0625 15.71875 117.457031 16.441406 117.589844 C 17.03125 117.65625 17.621094 117.65625 18.214844 117.589844 C 22.023438 117.394531 25.832031 117.195312 29.640625 117 C 30.230469 117 30.625 117.128906 30.625 117.851562 C 30.691406 119.628906 30.753906 121.402344 30.886719 123.179688 C 30.953125 123.96875 30.625 124.230469 29.96875 124.363281 C 24.78125 125.21875 19.59375 126.136719 14.40625 126.992188 C 12.632812 127.320312 10.925781 127.585938 9.152344 127.980469 C 8.363281 128.109375 7.839844 128.636719 8.035156 129.492188 C 8.167969 130.28125 8.824219 130.542969 9.546875 130.476562 C 9.742188 130.476562 9.9375 130.410156 10.136719 130.410156 C 16.898438 129.226562 23.597656 128.042969 30.363281 126.796875 C 31.082031 126.664062 31.347656 126.859375 31.410156 127.585938 C 31.675781 129.226562 31.9375 130.9375 32.265625 132.582031 C 32.398438 133.4375 32.070312 133.699219 31.347656 133.894531 C 24.320312 136 17.292969 138.105469 10.332031 140.273438 C 7.574219 141.128906 4.75 141.984375 1.992188 142.835938 C 1.074219 143.101562 0.613281 143.824219 0.878906 144.746094 C 1.140625 145.664062 1.929688 145.664062 2.714844 145.597656 C 2.914062 145.597656 3.109375 145.535156 3.308594 145.46875 C 5.605469 144.808594 7.902344 144.085938 10.203125 143.429688 C 17.492188 141.195312 24.84375 139.023438 32.132812 136.789062 C 32.988281 136.527344 33.25 136.789062 33.449219 137.578125 C 33.644531 138.5625 33.90625 139.484375 34.234375 140.40625 C 34.628906 141.390625 34.367188 141.785156 33.382812 142.179688 C 29.835938 143.5625 26.289062 145.007812 22.746094 146.386719 C 22.285156 146.585938 21.757812 146.78125 21.429688 147.175781 C 21.101562 147.570312 20.839844 148.03125 21.101562 148.558594 C 21.363281 149.085938 21.757812 149.347656 22.285156 149.414062 C 22.746094 149.476562 23.136719 149.347656 23.53125 149.148438 C 27.144531 147.769531 30.753906 146.386719 34.300781 144.941406 C 35.15625 144.613281 35.550781 144.746094 35.878906 145.597656 C 36.535156 147.441406 37.257812 149.28125 38.042969 151.054688 C 38.371094 151.78125 38.242188 152.042969 37.585938 152.4375 C 33.054688 154.9375 28.457031 157.433594 23.925781 160 C 22.480469 160.789062 21.035156 161.578125 19.59375 162.429688 C 18.804688 162.890625 18.34375 163.613281 18.871094 164.535156 C 19.394531 165.390625 20.183594 165.457031 21.035156 165.0625 C 21.363281 164.929688 21.695312 164.730469 21.957031 164.535156 C 27.539062 161.445312 33.121094 158.355469 38.699219 155.199219 C 39.488281 154.738281 39.882812 154.9375 40.210938 155.660156 C 40.867188 156.90625 41.457031 158.222656 42.246094 159.40625 C 42.839844 160.328125 42.640625 160.851562 41.722656 161.445312 C 34.300781 166.375 26.945312 171.4375 19.59375 176.433594 C 18.476562 177.222656 17.226562 177.882812 16.242188 178.867188 C 15.785156 179.328125 15.585938 179.855469 15.980469 180.445312 C 16.375 181.105469 16.964844 181.234375 17.621094 181.039062 C 17.949219 180.972656 18.277344 180.773438 18.542969 180.578125 C 23.335938 177.355469 28.0625 174.132812 32.855469 170.914062 C 36.402344 168.546875 39.882812 166.113281 43.429688 163.746094 C 43.886719 163.417969 44.347656 162.957031 44.875 163.8125 C 45.859375 165.257812 46.84375 166.703125 47.828125 168.085938 C 48.15625 168.546875 48.089844 168.808594 47.695312 169.136719 C 45.925781 170.582031 44.21875 172.097656 42.507812 173.609375 C 41.65625 174.332031 40.671875 174.988281 40.015625 175.910156 C 39.621094 176.5 39.6875 177.027344 40.015625 177.554688 C 40.410156 178.078125 41 178.210938 41.589844 177.949219 C 41.917969 177.816406 42.246094 177.554688 42.574219 177.289062 C 44.808594 175.382812 47.039062 173.542969 49.207031 171.570312 C 49.863281 170.976562 50.257812 171.109375 50.71875 171.703125 C 51.898438 173.082031 53.082031 174.464844 54.328125 175.777344 C 54.722656 176.238281 54.722656 176.5 54.328125 176.960938 C 51.570312 180.183594 48.8125 183.40625 46.054688 186.691406 C 44.609375 188.402344 43.167969 190.175781 41.789062 191.886719 C 41.195312 192.609375 41.195312 193.332031 41.984375 193.992188 C 42.707031 194.582031 43.363281 194.320312 43.953125 193.726562 C 44.347656 193.332031 44.808594 192.871094 45.136719 192.414062 C 48.8125 188.074219 52.492188 183.667969 56.167969 179.328125 C 56.757812 178.605469 57.152344 178.671875 57.742188 179.328125 C 58.464844 180.050781 59.1875 180.773438 60.042969 181.367188 C 60.960938 182.023438 61.027344 182.617188 60.371094 183.601562 C 54.527344 192.214844 48.683594 200.894531 42.839844 209.574219 C 42.574219 209.902344 42.378906 210.296875 42.179688 210.691406 C 41.917969 211.152344 42.117188 211.609375 42.445312 211.941406 C 42.839844 212.269531 43.363281 212.269531 43.757812 211.941406 C 44.019531 211.742188 44.28125 211.480469 44.480469 211.152344 C 47.5 206.878906 50.519531 202.605469 53.542969 198.265625 C 56.5625 193.925781 59.582031 189.585938 62.539062 185.246094 C 63.128906 184.324219 63.652344 184.257812 64.441406 184.984375 C 65.359375 185.835938 66.410156 186.625 67.460938 187.21875 C 68.511719 187.875 68.644531 188.402344 68.054688 189.519531 C 65.230469 194.78125 62.472656 200.105469 59.714844 205.429688 C 59.515625 205.824219 59.320312 206.21875 59.253906 206.613281 C 59.125 207.207031 59.320312 207.667969 59.910156 207.996094 C 60.4375 208.257812 60.960938 208.0625 61.289062 207.667969 C 61.617188 207.335938 61.816406 206.878906 62.078125 206.484375 C 64.835938 201.15625 67.660156 195.898438 70.417969 190.570312 C 70.8125 189.78125 71.140625 189.652344 71.929688 190.109375 C 73.4375 191.097656 75.015625 192.019531 76.65625 192.808594 C 77.445312 193.203125 77.507812 193.597656 77.179688 194.386719 C 75.671875 198.132812 74.226562 201.945312 72.714844 205.695312 C 71.929688 207.730469 71.140625 209.703125 70.351562 211.742188 C 70.023438 212.53125 70.089844 213.253906 71.007812 213.582031 C 71.929688 213.914062 72.386719 213.386719 72.78125 212.664062 C 72.847656 212.53125 72.914062 212.398438 72.980469 212.203125 C 75.210938 206.613281 77.445312 201.089844 79.675781 195.503906 C 80.003906 194.714844 80.265625 194.515625 81.054688 194.910156 C 82.632812 195.699219 84.273438 196.359375 85.914062 197.015625 C 86.570312 197.277344 86.835938 197.605469 86.570312 198.328125 C 85.71875 201.089844 84.929688 203.917969 84.140625 206.746094 C 82.367188 213.058594 80.597656 219.304688 78.824219 225.617188 C 78.558594 226.46875 78.496094 227.324219 79.546875 227.652344 C 80.660156 227.984375 81.121094 227.257812 81.382812 226.339844 C 81.910156 224.628906 82.367188 222.921875 82.894531 221.210938 C 84.996094 213.914062 87.097656 206.679688 89.199219 199.382812 C 89.394531 198.660156 89.722656 198.328125 90.511719 198.59375 C 92.351562 199.183594 94.253906 199.777344 96.160156 200.300781 C 96.816406 200.5 97.011719 200.761719 96.882812 201.355469 C 96.75 202.210938 96.550781 203.0625 96.488281 203.917969 C 96.355469 204.773438 96.222656 205.824219 97.40625 206.023438 C 98.589844 206.21875 98.785156 205.234375 98.980469 204.378906 C 99.113281 203.65625 99.179688 203 99.3125 202.273438 C 99.441406 201.484375 99.640625 200.960938 100.625 201.289062 C 101.347656 201.550781 102.132812 201.617188 102.921875 201.75 C 104.628906 202.078125 104.628906 202.078125 104.433594 203.785156 C 103.777344 208.851562 103.183594 213.847656 102.59375 218.910156 C 102.527344 219.699219 102.59375 220.554688 103.578125 220.617188 C 104.5625 220.683594 104.828125 219.894531 104.890625 219.105469 C 105.285156 213.914062 106.074219 208.785156 106.535156 203.589844 C 106.664062 202.40625 107.125 202.273438 108.042969 202.472656 C 110.472656 202.867188 112.902344 202.933594 115.332031 203.0625 C 116.582031 203.128906 116.777344 203.523438 116.777344 204.707031 C 116.777344 213.125 116.777344 221.605469 116.84375 230.019531 C 116.84375 230.546875 116.84375 231.136719 117.039062 231.664062 C 117.238281 232.257812 117.632812 232.585938 118.289062 232.519531 C 118.878906 232.519531 119.273438 232.191406 119.339844 231.597656 C 119.46875 231.007812 119.535156 230.414062 119.535156 229.824219 C 119.535156 222.460938 119.601562 215.160156 119.601562 207.796875 C 119.601562 206.546875 119.601562 205.300781 119.601562 203.984375 C 119.601562 203.457031 119.734375 203.128906 120.390625 203.0625 C 122.6875 202.933594 125.050781 202.800781 127.351562 202.605469 C 128.070312 202.539062 128.402344 202.734375 128.464844 203.523438 C 128.992188 208.652344 129.78125 213.78125 130.109375 218.910156 C 130.171875 219.699219 130.371094 220.617188 131.421875 220.488281 C 132.472656 220.421875 132.472656 219.5 132.40625 218.644531 C 132.144531 216.410156 131.816406 214.175781 131.550781 212.003906 C 131.222656 209.046875 130.894531 206.152344 130.5 203.195312 C 130.4375 202.539062 130.566406 202.144531 131.355469 202.078125 C 132.472656 201.945312 133.523438 201.816406 134.640625 201.550781 C 135.492188 201.355469 135.6875 201.683594 135.753906 202.40625 C 135.820312 203.195312 136.019531 203.984375 136.148438 204.707031 C 136.28125 205.429688 136.738281 205.957031 137.527344 205.824219 C 138.382812 205.695312 138.578125 205.101562 138.578125 204.378906 C 138.511719 203.523438 138.382812 202.667969 138.183594 201.816406 C 138.054688 201.089844 138.25 200.761719 138.972656 200.566406 C 140.941406 200.105469 142.847656 199.578125 144.75 198.988281 C 145.472656 198.789062 145.734375 198.988281 145.867188 199.644531 C 146.65625 202.472656 147.445312 205.234375 148.230469 208.0625 C 149.9375 213.976562 151.710938 219.960938 153.417969 225.878906 C 153.8125 227.257812 154.46875 227.71875 155.390625 227.390625 C 156.503906 226.996094 156.308594 226.074219 156.046875 225.222656 C 155.390625 222.855469 154.734375 220.421875 154.074219 218.054688 C 152.238281 211.675781 150.398438 205.234375 148.558594 198.855469 C 148.363281 198.132812 148.496094 197.804688 149.214844 197.539062 C 150.859375 196.949219 152.5 196.226562 154.140625 195.503906 C 154.929688 195.175781 155.257812 195.238281 155.652344 196.09375 C 157.6875 201.289062 159.789062 206.484375 161.890625 211.675781 C 162.480469 213.1875 163.070312 213.582031 163.925781 213.253906 C 164.78125 212.925781 164.84375 212.203125 164.253906 210.691406 C 162.21875 205.496094 160.183594 200.238281 158.148438 195.042969 C 157.820312 194.1875 157.949219 193.726562 158.804688 193.332031 C 160.445312 192.476562 162.085938 191.558594 163.664062 190.636719 C 164.320312 190.242188 164.648438 190.375 164.910156 191.03125 C 165.632812 192.476562 166.421875 193.925781 167.144531 195.304688 C 169.113281 198.988281 171.019531 202.734375 172.988281 206.417969 C 173.382812 207.207031 173.839844 207.996094 174.957031 207.535156 C 175.746094 207.207031 175.8125 206.417969 175.21875 205.167969 C 175.15625 205.035156 175.089844 204.90625 175.023438 204.773438 C 172.398438 199.777344 169.835938 194.78125 167.144531 189.78125 C 166.75 189.058594 166.816406 188.597656 167.539062 188.140625 C 168.785156 187.351562 170.03125 186.496094 171.214844 185.574219 C 172.066406 184.917969 172.460938 185.046875 173.054688 185.902344 C 178.699219 194.054688 184.414062 202.210938 190.0625 210.363281 C 190.585938 211.152344 191.175781 212.203125 192.292969 211.480469 C 193.34375 210.757812 192.554688 209.835938 192.03125 209.113281 C 189.011719 204.574219 185.925781 199.972656 182.902344 195.4375 C 180.34375 191.625 177.714844 187.808594 175.15625 183.996094 C 174.890625 183.601562 174.300781 183.207031 175.023438 182.617188 C 176.140625 181.695312 177.257812 180.710938 178.304688 179.722656 C 178.765625 179.328125 179.09375 179.394531 179.488281 179.855469 C 179.6875 180.117188 179.949219 180.378906 180.210938 180.644531 C 182.96875 183.929688 185.792969 187.285156 188.550781 190.570312 C 189.339844 191.492188 190.125 192.414062 190.980469 193.265625 C 191.570312 193.859375 192.292969 194.054688 192.949219 193.398438 C 193.542969 192.808594 193.605469 192.148438 193.082031 191.492188 C 192.820312 191.164062 192.621094 190.835938 192.359375 190.570312 C 188.746094 186.296875 185.203125 182.089844 181.589844 177.882812 C 181.195312 177.421875 181.066406 177.09375 181.523438 176.566406 C 182.902344 175.121094 184.214844 173.675781 185.464844 172.160156 C 185.988281 171.570312 186.316406 171.636719 186.777344 172.160156 C 187.566406 172.886719 188.351562 173.609375 189.140625 174.265625 C 190.257812 175.1875 191.308594 176.171875 192.492188 177.09375 C 193.148438 177.617188 193.933594 177.882812 194.589844 177.160156 C 195.378906 176.371094 194.984375 175.648438 194.394531 174.988281 C 194.261719 174.859375 194.132812 174.726562 193.933594 174.59375 C 192.160156 173.082031 190.390625 171.503906 188.550781 169.992188 C 187.894531 169.464844 187.960938 169.070312 188.417969 168.414062 C 189.339844 167.230469 190.324219 165.980469 191.113281 164.667969 C 191.703125 163.746094 192.097656 163.8125 192.949219 164.335938 C 200.632812 169.597656 208.382812 174.792969 216.128906 180.050781 C 217.246094 180.839844 218.101562 180.773438 218.625 180.050781 C 219.152344 179.328125 218.886719 178.539062 217.707031 177.75 C 216.589844 176.960938 215.472656 176.238281 214.421875 175.449219 C 207.726562 170.914062 201.09375 166.375 194.394531 161.839844 C 193.605469 161.3125 193.542969 160.851562 194.066406 160.128906 C 194.722656 159.078125 195.3125 157.960938 195.96875 156.84375 C 197.085938 154.804688 196.691406 155 198.664062 156.121094 C 203.652344 158.816406 208.578125 161.640625 213.570312 164.335938 C 214.683594 164.929688 215.472656 164.796875 215.933594 164.007812 C 216.394531 163.21875 216.066406 162.367188 214.949219 161.707031 C 214.816406 161.640625 214.683594 161.578125 214.554688 161.511719 C 209.433594 158.683594 204.308594 155.789062 199.1875 152.964844 C 198.398438 152.570312 198.335938 152.109375 198.730469 151.386719 C 199.582031 149.542969 200.371094 147.703125 201.027344 145.796875 C 201.355469 144.875 201.75 144.808594 202.601562 145.140625 C 205.558594 146.324219 208.511719 147.507812 211.535156 148.625 C 212.648438 149.085938 213.570312 148.820312 213.898438 148.03125 C 214.226562 147.242188 213.765625 146.453125 212.648438 145.929688 C 212.519531 145.863281 212.386719 145.796875 212.191406 145.730469 C 209.234375 144.546875 206.347656 143.363281 203.390625 142.246094 C 202.667969 141.984375 202.40625 141.589844 202.734375 140.800781 C 203.0625 139.878906 203.324219 138.894531 203.589844 137.972656 C 203.980469 136.527344 203.980469 136.527344 205.425781 136.921875 C 212.914062 139.15625 220.332031 141.457031 227.820312 143.691406 C 229.261719 144.152344 230.773438 144.613281 232.21875 144.941406 C 233.007812 145.140625 233.859375 145.074219 234.121094 144.085938 C 234.386719 144.019531 233.925781 143.429688 233.007812 143.101562 Z M 203.0625 107.726562 C 203.195312 109.503906 203.324219 111.277344 203.390625 112.460938 C 203.390625 114.894531 203.390625 114.894531 201.550781 114.632812 C 199.648438 114.367188 197.679688 114.433594 195.773438 114.304688 C 191.308594 114.039062 186.910156 113.910156 182.445312 113.710938 C 177.191406 113.515625 171.9375 113.25 166.617188 113.054688 C 165.960938 113.054688 165.699219 112.789062 165.699219 112.199219 C 165.632812 111.410156 165.171875 110.421875 165.4375 109.765625 C 165.765625 109.042969 166.878906 109.4375 167.601562 109.371094 C 170.359375 109.109375 173.183594 108.976562 175.941406 108.78125 C 181.457031 108.386719 186.910156 107.992188 192.425781 107.664062 C 195.707031 107.464844 198.925781 107.203125 202.207031 106.9375 C 202.929688 106.875 203.0625 107.203125 203.0625 107.726562 Z M 202.078125 99.96875 C 202.207031 101.152344 202.40625 102.335938 202.667969 103.453125 C 202.800781 104.113281 202.667969 104.308594 202.011719 104.308594 C 199.121094 104.507812 196.300781 104.769531 193.410156 104.964844 C 188.351562 105.359375 183.296875 105.753906 178.242188 106.085938 C 174.695312 106.347656 171.214844 106.609375 167.667969 106.875 C 167.011719 106.9375 166.421875 107.003906 165.699219 107.070312 C 164.582031 107.269531 164.78125 106.214844 164.582031 105.558594 C 164.320312 104.703125 165.109375 104.835938 165.5 104.769531 C 177.320312 103.125 189.074219 101.023438 200.828125 99.050781 C 201.550781 99.050781 201.945312 99.113281 202.078125 99.96875 Z M 198.859375 87.871094 C 199.648438 90.238281 200.371094 92.605469 200.960938 95.039062 C 201.027344 95.300781 201.09375 95.5625 201.09375 95.5625 C 201.222656 96.550781 200.765625 96.550781 200.304688 96.617188 C 196.363281 97.273438 192.425781 97.996094 188.484375 98.71875 C 180.605469 100.101562 172.789062 101.417969 164.976562 103.058594 C 164.121094 103.257812 163.730469 103.125 163.53125 102.269531 C 163.335938 101.285156 162.285156 100.296875 162.808594 99.445312 C 163.203125 98.71875 164.582031 98.71875 165.5 98.390625 C 176.074219 94.777344 186.449219 90.894531 196.957031 87.015625 C 198.335938 86.359375 198.335938 86.359375 198.859375 87.871094 Z M 195.183594 78.863281 C 195.640625 80.179688 196.300781 81.429688 196.890625 82.613281 C 197.285156 83.402344 197.019531 83.664062 196.234375 83.992188 C 190.585938 86.03125 184.9375 88.070312 179.292969 90.171875 C 173.644531 92.277344 167.996094 94.316406 162.414062 96.617188 C 162.152344 96.746094 161.890625 96.8125 161.628906 96.945312 C 160.972656 96.351562 160.640625 95.5625 160.3125 94.777344 C 160.050781 94.117188 160.707031 93.988281 161.101562 93.855469 C 172.003906 88.921875 182.707031 83.53125 193.410156 78.207031 C 194.261719 77.746094 194.789062 77.8125 195.183594 78.863281 Z M 189.074219 68.210938 C 190.324219 70.121094 191.503906 72.09375 192.621094 74.066406 C 192.753906 74.261719 192.820312 74.523438 192.882812 74.65625 C 192.820312 75.246094 192.359375 75.3125 191.964844 75.511719 C 186.1875 78.402344 180.40625 81.296875 174.628906 84.191406 C 169.574219 86.753906 164.449219 89.1875 159.527344 92.015625 C 159.066406 92.277344 158.671875 92.34375 158.34375 91.75 C 158.148438 91.355469 157.882812 91.027344 157.621094 90.699219 C 157.226562 90.171875 157.226562 89.777344 157.882812 89.382812 C 168.0625 82.546875 177.976562 75.246094 187.960938 68.082031 C 188.484375 67.6875 188.746094 67.6875 189.074219 68.210938 Z M 180.40625 59.074219 C 181.128906 58.351562 181.523438 58.351562 182.113281 59.140625 C 183.429688 60.847656 184.875 62.492188 186.1875 64.203125 C 186.382812 64.464844 186.515625 64.726562 186.644531 64.925781 C 186.644531 65.515625 186.1875 65.582031 185.921875 65.847656 C 178.765625 70.972656 171.609375 76.167969 164.449219 81.296875 C 161.757812 83.269531 159.132812 85.242188 156.503906 87.28125 C 155.847656 87.804688 155.519531 87.742188 154.929688 87.148438 C 153.023438 85.109375 153.023438 85.109375 155.191406 83.203125 C 157.621094 80.96875 160.050781 78.734375 162.480469 76.429688 C 168.523438 70.710938 174.496094 64.925781 180.40625 59.074219 Z M 174.828125 53.15625 C 175.15625 52.828125 175.417969 52.5 175.875 52.960938 C 176.925781 53.945312 177.914062 54.929688 178.964844 55.851562 C 179.09375 55.984375 179.160156 56.179688 179.292969 56.378906 C 179.027344 56.640625 178.765625 56.902344 178.503906 57.167969 C 173.183594 62.296875 167.867188 67.488281 162.546875 72.617188 C 159.066406 75.972656 155.585938 79.257812 152.367188 82.808594 C 151.1875 84.125 150.792969 82.613281 150.136719 82.28125 C 149.28125 81.824219 149.875 81.363281 150.265625 80.902344 C 155.980469 74.851562 161.363281 68.542969 166.816406 62.230469 C 169.574219 59.207031 172.199219 56.179688 174.828125 53.15625 Z M 167.339844 47.503906 C 167.929688 46.648438 168.324219 46.582031 169.113281 47.238281 C 170.097656 48.09375 171.214844 48.882812 172.265625 49.738281 C 172.921875 50.199219 172.921875 50.65625 172.398438 51.316406 C 167.078125 57.429688 161.757812 63.542969 156.441406 69.660156 C 153.746094 72.816406 150.925781 75.972656 148.429688 79.257812 C 148.230469 79.585938 147.96875 79.917969 147.507812 79.980469 C 146.917969 79.652344 146.261719 79.324219 145.933594 78.796875 C 145.605469 78.273438 146.195312 77.945312 146.457031 77.613281 C 151.121094 71.5 155.324219 64.992188 159.722656 58.679688 C 162.285156 54.929688 164.84375 51.25 167.339844 47.503906 Z M 158.871094 42.636719 C 159.65625 41.125 159.65625 41.125 161.167969 41.980469 C 162.480469 42.769531 163.730469 43.558594 164.976562 44.347656 C 165.238281 44.542969 165.632812 44.609375 165.632812 45.136719 C 165.4375 45.398438 165.238281 45.792969 165.042969 46.054688 C 158.605469 55.457031 151.972656 64.792969 145.734375 74.328125 C 145.210938 75.117188 144.75 75.839844 144.355469 76.628906 C 144.09375 77.15625 143.765625 77.21875 143.242188 76.957031 C 140.941406 75.707031 140.941406 75.773438 142.191406 73.539062 C 147.902344 63.414062 153.289062 53.023438 158.871094 42.636719 Z M 151.054688 38.890625 C 151.1875 38.496094 151.382812 38.164062 151.515625 37.835938 C 151.644531 37.507812 151.910156 37.375 152.238281 37.574219 C 153.878906 38.363281 155.519531 39.152344 157.164062 39.941406 C 157.359375 40.007812 157.492188 40.136719 157.492188 40.402344 C 157.359375 40.597656 157.292969 40.863281 157.164062 41.125 C 152.632812 49.410156 148.164062 57.628906 143.636719 65.910156 C 142.320312 68.34375 141.007812 70.84375 139.761719 73.339844 C 138.972656 74.917969 138.972656 74.851562 137.398438 74.261719 C 136.476562 73.933594 136.28125 73.605469 136.738281 72.617188 C 137.988281 69.789062 139.167969 66.898438 140.417969 64.003906 C 143.964844 55.589844 147.507812 47.238281 151.054688 38.890625 Z M 142.453125 35.273438 C 142.714844 34.351562 143.042969 34.023438 143.964844 34.417969 C 145.40625 35.007812 146.917969 35.46875 148.429688 35.929688 C 149.152344 36.128906 149.347656 36.457031 149.019531 37.246094 C 144.160156 48.816406 139.367188 60.390625 134.574219 71.894531 C 134.441406 72.289062 134.375 72.75 133.71875 72.75 C 133.128906 72.550781 132.539062 72.355469 131.945312 72.15625 C 131.289062 71.894531 131.683594 71.433594 131.816406 71.039062 C 133.589844 65.058594 135.425781 59.074219 137.199219 53.023438 C 138.972656 47.171875 140.746094 41.253906 142.453125 35.273438 Z M 132.996094 32.839844 C 133.128906 32.050781 133.390625 31.722656 134.246094 31.984375 C 135.6875 32.3125 137.132812 32.644531 138.644531 32.90625 C 139.5 33.039062 139.695312 33.367188 139.433594 34.285156 C 137.460938 40.597656 135.492188 46.976562 133.523438 53.355469 C 131.816406 58.941406 130.042969 64.53125 128.269531 70.121094 C 128.136719 70.578125 128.136719 71.304688 127.285156 71.105469 C 125.640625 70.910156 125.640625 70.910156 125.972656 69.132812 C 128.269531 56.96875 130.632812 44.9375 132.996094 32.839844 Z M 120.914062 67.292969 C 120.914062 67.292969 120.980469 67.292969 120.980469 67.292969 C 121.242188 60.71875 121.441406 54.144531 121.703125 47.566406 C 121.832031 43.820312 122.03125 40.007812 122.164062 36.257812 C 122.226562 34.613281 122.359375 33.039062 122.359375 31.394531 C 122.359375 30.734375 122.6875 30.605469 123.214844 30.605469 C 125.3125 30.800781 127.351562 30.933594 129.453125 31.128906 C 130.109375 31.195312 130.171875 31.523438 130.042969 32.117188 C 129.058594 36.980469 128.136719 41.847656 127.21875 46.714844 C 125.839844 54.078125 124.460938 61.507812 123.015625 68.871094 C 122.949219 69.394531 123.082031 70.054688 122.492188 70.316406 C 121.636719 70.777344 120.914062 70.25 120.914062 69.265625 C 120.914062 68.671875 120.914062 68.015625 120.914062 67.292969 Z M 113.558594 30.671875 C 114.875 30.671875 116.121094 30.539062 117.433594 30.472656 C 119.273438 30.40625 119.273438 30.40625 119.140625 32.183594 C 118.945312 39.019531 118.746094 45.792969 118.484375 52.628906 C 118.289062 57.628906 118.089844 62.625 118.023438 67.621094 C 118.023438 68.277344 117.894531 68.871094 117.894531 69.527344 C 117.894531 70.054688 117.828125 70.449219 117.105469 70.449219 C 116.382812 70.449219 116.253906 70.054688 116.1875 69.527344 C 115.925781 66.570312 115.726562 63.675781 115.464844 60.71875 C 115.003906 55.917969 114.546875 51.183594 114.152344 46.382812 C 113.824219 42.769531 113.496094 39.152344 113.167969 35.601562 C 113.035156 34.285156 112.902344 33.039062 112.773438 31.722656 C 112.640625 31 112.835938 30.671875 113.558594 30.671875 Z M 106.269531 31.394531 C 107.125 31.261719 107.976562 31.195312 109.027344 31.066406 C 109.882812 30.671875 110.015625 31.394531 110.078125 32.183594 C 110.800781 39.546875 111.523438 46.910156 112.246094 54.273438 C 112.773438 59.140625 113.296875 63.9375 113.824219 68.804688 C 114.019531 70.449219 113.101562 71.238281 111.394531 70.910156 C 110.867188 70.777344 110.867188 70.382812 110.800781 70.054688 C 110.078125 65.648438 109.359375 61.175781 108.636719 56.773438 C 107.320312 49.015625 106.007812 41.253906 104.695312 33.496094 C 104.5 31.722656 104.5 31.65625 106.269531 31.394531 Z M 96.355469 33.496094 C 97.996094 33.167969 99.574219 32.707031 100.953125 32.378906 C 102.003906 32.3125 101.9375 33.039062 102.003906 33.496094 C 102.59375 36.652344 103.121094 39.875 103.644531 43.03125 C 105.21875 52.234375 106.863281 61.507812 108.503906 70.710938 C 108.699219 71.960938 107.976562 71.960938 107.257812 72.289062 C 106.269531 72.683594 106.207031 71.960938 106.074219 71.304688 C 102.527344 59.207031 99.046875 47.109375 95.5 35.007812 C 95.238281 34.089844 95.371094 33.695312 96.355469 33.496094 Z M 87.226562 36.523438 C 88.410156 36.0625 89.65625 35.667969 90.839844 35.140625 C 91.824219 34.746094 92.285156 34.878906 92.613281 35.996094 C 95.109375 44.542969 97.601562 53.089844 100.164062 61.570312 C 101.148438 64.925781 102.199219 68.210938 103.183594 71.5 C 103.316406 71.894531 103.382812 72.222656 103.578125 72.75 C 103.316406 73.605469 102.398438 73.472656 101.738281 73.800781 C 101.148438 74.128906 101.019531 73.539062 100.886719 73.144531 C 98.128906 66.636719 95.4375 60.058594 92.679688 53.550781 C 90.578125 48.554688 88.542969 43.492188 86.441406 38.496094 C 85.785156 37.113281 85.785156 37.113281 87.226562 36.523438 Z M 78.824219 40.402344 C 80.070312 39.875 81.253906 39.21875 82.433594 38.625 C 82.695312 38.496094 82.960938 38.429688 83.15625 38.296875 C 83.683594 38.363281 83.683594 38.757812 83.8125 39.085938 C 85.785156 43.753906 87.820312 48.421875 89.789062 53.089844 C 92.742188 59.996094 95.632812 66.832031 98.589844 73.734375 C 98.785156 74.128906 99.246094 74.65625 98.71875 74.984375 C 98.0625 75.445312 97.339844 75.90625 96.488281 76.035156 C 96.222656 76.101562 96.160156 75.640625 96.027344 75.445312 C 91.890625 66.699219 86.964844 58.285156 82.433594 49.804688 C 81.054688 47.238281 79.675781 44.742188 78.230469 42.242188 C 77.707031 41.253906 77.902344 40.796875 78.824219 40.402344 Z M 70.550781 45.398438 C 71.992188 44.542969 73.4375 43.621094 74.816406 42.636719 C 75.539062 42.175781 75.867188 42.308594 76.261719 43.03125 C 79.742188 49.605469 83.289062 56.179688 86.769531 62.691406 C 89.265625 67.292969 91.628906 71.894531 94.453125 76.300781 C 94.582031 76.429688 94.648438 76.628906 94.714844 76.761719 C 94.714844 77.15625 94.453125 77.21875 94.320312 77.351562 C 92.085938 79.128906 91.957031 79.0625 90.578125 76.695312 C 87.621094 71.632812 84.207031 66.964844 80.925781 62.097656 C 77.445312 56.96875 73.898438 51.839844 70.351562 46.714844 C 69.890625 46.1875 69.828125 45.792969 70.550781 45.398438 Z M 63.457031 50.855469 C 64.574219 50.066406 65.625 49.144531 66.675781 48.289062 C 66.9375 48.09375 67.199219 47.960938 67.460938 47.765625 C 67.921875 47.960938 68.121094 48.355469 68.382812 48.75 C 70.941406 52.5 73.503906 56.246094 76.066406 59.996094 C 80.203125 65.976562 84.207031 72.09375 88.671875 77.878906 C 89 78.339844 89.261719 78.929688 89.65625 79.324219 C 90.25 79.980469 90.050781 80.375 89.394531 80.96875 C 88.542969 81.757812 88.148438 81.492188 87.492188 80.640625 C 83.746094 75.511719 79.414062 70.84375 75.34375 66.042969 C 71.402344 61.441406 67.398438 56.839844 63.457031 52.300781 C 62.867188 51.644531 62.734375 51.382812 63.457031 50.855469 Z M 56.695312 56.707031 C 57.679688 55.785156 58.664062 54.800781 59.648438 53.8125 C 59.78125 53.683594 59.910156 53.617188 60.042969 53.550781 C 60.503906 53.617188 60.765625 53.945312 60.960938 54.273438 C 63.785156 57.5625 66.675781 60.785156 69.5 64.070312 C 73.242188 68.34375 76.917969 72.617188 80.726562 76.824219 C 82.5 78.796875 84.207031 80.902344 86.375 82.546875 C 86.636719 82.742188 86.703125 83.007812 86.441406 83.203125 C 85.980469 83.664062 85.519531 84.191406 84.996094 84.585938 C 84.535156 85.042969 84.207031 84.585938 83.945312 84.253906 C 82.894531 83.136719 81.910156 81.953125 80.792969 80.902344 C 73.699219 73.933594 66.609375 67.03125 59.515625 60.058594 C 58.664062 59.207031 57.742188 58.417969 56.824219 57.5625 C 56.5625 57.429688 56.300781 57.167969 56.695312 56.707031 Z M 49.796875 65.058594 C 51.175781 63.414062 52.492188 61.636719 53.804688 59.929688 C 54 59.664062 54.265625 59.535156 54.460938 59.335938 C 54.855469 59.402344 55.050781 59.664062 55.25 59.929688 C 58.53125 63.085938 61.75 66.242188 64.96875 69.394531 C 70.285156 74.460938 75.472656 79.585938 80.988281 84.453125 C 81.382812 84.847656 81.777344 85.242188 82.304688 85.503906 C 83.484375 86.03125 83.417969 86.6875 82.566406 87.476562 C 81.976562 88.003906 81.644531 89.121094 80.925781 89.253906 C 80.136719 89.382812 79.675781 88.332031 79.019531 87.804688 C 71.335938 81.886719 63.390625 76.300781 55.511719 70.578125 C 53.738281 69.265625 51.898438 68.015625 50.125 66.765625 C 49.40625 66.304688 49.140625 65.847656 49.796875 65.058594 Z M 43.757812 74.722656 C 44.875 72.945312 45.925781 71.105469 46.910156 69.332031 C 47.304688 68.605469 47.695312 68.605469 48.355469 69.066406 C 56.757812 75.117188 65.097656 81.230469 73.636719 87.082031 C 75.40625 88.265625 77.179688 89.382812 78.953125 90.566406 C 79.21875 90.699219 79.546875 90.765625 79.609375 91.355469 C 79.152344 92.015625 78.691406 92.804688 78.167969 93.527344 C 78.035156 93.722656 77.835938 93.59375 77.640625 93.460938 C 69.761719 88.527344 61.160156 84.847656 52.949219 80.574219 C 50.0625 79.0625 47.171875 77.679688 44.28125 76.234375 C 43.496094 75.839844 43.230469 75.511719 43.757812 74.722656 Z M 39.816406 83.007812 C 40.410156 81.886719 40.867188 80.707031 41.328125 79.523438 C 41.65625 78.601562 42.050781 78.46875 42.96875 78.929688 C 47.960938 81.429688 52.949219 83.925781 58.007812 86.359375 C 64.113281 89.316406 70.15625 92.472656 76.523438 94.90625 C 76.789062 95.039062 77.179688 94.972656 77.117188 95.5 C 76.722656 96.289062 76.328125 97.078125 75.867188 97.800781 C 75.671875 98.128906 75.277344 97.929688 75.015625 97.800781 C 63.71875 92.867188 52.03125 88.988281 40.472656 84.714844 C 39.554688 84.320312 39.292969 83.992188 39.816406 83.007812 Z M 35.8125 95.433594 C 36.402344 93.132812 37.058594 90.832031 37.78125 88.527344 C 38.242188 87.015625 38.308594 87.015625 39.75 87.542969 C 49.863281 91.289062 59.976562 95.039062 70.15625 98.457031 C 71.46875 98.917969 72.78125 99.3125 74.09375 99.640625 C 74.816406 99.839844 75.015625 100.035156 74.75 100.757812 C 74.488281 101.417969 74.226562 102.140625 74.027344 102.863281 C 73.898438 103.324219 73.636719 103.652344 72.847656 103.386719 C 69.761719 102.796875 66.410156 102.074219 63.0625 101.480469 C 54.328125 99.902344 45.597656 98.390625 36.863281 96.878906 C 35.746094 96.8125 35.550781 96.484375 35.8125 95.433594 Z M 34.234375 103.652344 C 34.433594 102.46875 34.628906 101.351562 34.828125 100.167969 C 34.890625 99.507812 35.15625 99.378906 35.878906 99.507812 C 41.851562 100.5625 47.894531 101.480469 53.871094 102.46875 C 59.976562 103.453125 66.019531 104.507812 72.191406 105.230469 C 72.585938 105.296875 73.308594 104.964844 73.242188 105.886719 C 73.109375 107.070312 72.847656 107.398438 71.929688 107.332031 C 67.660156 107.003906 63.390625 106.609375 59.125 106.28125 C 55.707031 106.019531 52.292969 105.753906 48.878906 105.492188 C 44.28125 105.164062 39.621094 104.835938 35.023438 104.507812 C 34.300781 104.507812 34.171875 104.175781 34.234375 103.652344 Z M 33.511719 113.449219 C 33.644531 111.671875 33.710938 109.832031 33.777344 107.992188 C 33.777344 107.136719 34.234375 107.070312 34.957031 107.070312 C 37.453125 107.269531 39.949219 107.398438 42.507812 107.597656 C 45.332031 107.792969 48.15625 108.058594 50.980469 108.253906 C 57.679688 108.714844 64.3125 109.109375 71.007812 109.503906 C 72.058594 109.570312 72.648438 109.898438 72.191406 111.082031 C 72.125 111.277344 72.125 111.542969 72.125 111.804688 C 72.058594 112.660156 71.796875 113.183594 70.746094 113.054688 C 69.957031 112.988281 69.105469 113.054688 68.25 113.054688 C 60.109375 113.382812 51.964844 113.710938 43.824219 114.039062 C 40.738281 114.171875 37.714844 114.304688 34.628906 114.5 C 33.777344 114.566406 33.449219 114.304688 33.511719 113.449219 Z M 33.710938 122.914062 C 33.644531 121.667969 33.578125 120.417969 33.511719 119.300781 C 33.511719 118.90625 33.511719 118.640625 33.511719 118.378906 C 33.382812 117.328125 33.777344 117.0625 34.828125 117 C 42.378906 116.734375 49.929688 116.40625 57.414062 116.011719 C 61.75 115.816406 66.082031 115.421875 70.484375 115.15625 C 70.941406 115.15625 71.863281 114.761719 71.664062 115.683594 C 71.535156 116.40625 72.257812 117.589844 70.550781 117.789062 C 63.523438 118.640625 56.496094 119.957031 49.46875 121.140625 C 44.546875 121.996094 39.621094 122.785156 34.695312 123.703125 C 33.972656 123.902344 33.777344 123.640625 33.710938 122.914062 Z M 35.089844 132.121094 C 34.828125 130.476562 34.5625 128.832031 34.234375 127.253906 C 34.105469 126.597656 34.367188 126.402344 35.023438 126.269531 C 40.277344 125.347656 45.464844 124.429688 50.71875 123.507812 C 57.285156 122.324219 63.785156 121.207031 70.285156 119.824219 C 71.796875 119.496094 71.796875 119.496094 71.796875 121.140625 C 72.058594 122.0625 71.535156 122.324219 70.613281 122.585938 C 59.976562 125.414062 49.46875 128.703125 38.898438 131.859375 C 37.980469 132.121094 36.992188 132.382812 36.074219 132.710938 C 35.417969 132.976562 35.15625 132.777344 35.089844 132.121094 Z M 36.929688 139.8125 C 36.730469 138.828125 36.402344 137.839844 36.140625 136.855469 C 35.878906 136.066406 36.074219 135.738281 36.863281 135.539062 C 43.101562 133.699219 49.273438 131.792969 55.511719 129.886719 C 60.566406 128.308594 65.625 126.730469 70.679688 125.085938 C 72.125 124.625 72.125 124.558594 72.386719 126.070312 C 72.453125 126.335938 72.453125 126.53125 72.453125 126.53125 C 72.519531 127.253906 72.191406 127.386719 71.796875 127.585938 C 60.503906 131.59375 49.40625 136.132812 38.242188 140.535156 C 37.453125 140.800781 37.125 140.601562 36.929688 139.8125 Z M 42.117188 150.203125 C 41.851562 150.332031 41.589844 150.464844 41.457031 150.53125 C 40.933594 150.597656 40.800781 150.265625 40.738281 150.003906 C 39.949219 148.097656 39.226562 146.191406 38.4375 144.285156 C 38.109375 143.363281 38.898438 143.429688 39.292969 143.230469 C 43.035156 141.71875 46.84375 140.207031 50.585938 138.761719 C 57.742188 135.933594 64.96875 133.105469 71.992188 129.949219 C 72.914062 129.554688 73.175781 129.753906 73.4375 130.609375 C 74.09375 132.84375 74.09375 132.84375 71.992188 133.894531 C 63.195312 138.367188 54.59375 143.296875 45.925781 148.03125 C 44.675781 148.753906 43.429688 149.476562 42.117188 150.203125 Z M 45.792969 159.011719 C 45.332031 159.011719 45.203125 158.75 45.070312 158.484375 C 44.28125 157.039062 43.496094 155.59375 42.707031 154.148438 C 42.246094 153.292969 43.035156 153.09375 43.429688 152.898438 C 46.582031 151.121094 49.667969 149.414062 52.820312 147.703125 C 59.84375 143.757812 66.9375 139.945312 73.832031 135.671875 C 74.621094 135.144531 75.015625 135.210938 75.40625 136.132812 C 76.457031 138.5 76.457031 138.5 74.226562 139.945312 C 65.097656 146.058594 55.90625 152.238281 46.777344 158.355469 C 46.382812 158.550781 46.054688 158.816406 45.792969 159.011719 Z M 49.996094 166.046875 C 49.207031 164.863281 48.417969 163.679688 47.566406 162.5625 C 46.976562 161.839844 47.238281 161.445312 47.894531 160.984375 C 54.984375 156.183594 62.078125 151.320312 69.105469 146.453125 C 71.597656 144.746094 74.027344 143.101562 76.457031 141.324219 C 77.3125 140.667969 77.773438 140.734375 78.167969 141.71875 C 78.296875 142.113281 78.625 142.441406 78.757812 142.773438 C 78.757812 143.167969 78.558594 143.296875 78.363281 143.429688 C 69.171875 150.792969 60.371094 158.683594 51.375 166.308594 C 50.71875 166.902344 50.390625 166.703125 49.996094 166.046875 Z M 57.808594 173.28125 C 57.546875 173.542969 57.351562 173.9375 56.957031 174.070312 C 56.695312 174.070312 56.496094 173.871094 56.363281 173.675781 C 55.183594 172.292969 54 170.976562 52.753906 169.597656 C 52.425781 169.203125 52.492188 168.941406 52.886719 168.613281 C 58.136719 164.074219 63.390625 159.539062 68.644531 154.9375 C 72.257812 151.78125 75.800781 148.625 79.347656 145.46875 C 79.675781 145.203125 80.003906 144.546875 80.597656 145.203125 C 80.988281 145.730469 81.121094 146.125 80.597656 146.71875 C 76.851562 150.925781 73.175781 155.132812 69.5 159.40625 C 65.558594 164.074219 61.683594 168.675781 57.808594 173.28125 Z M 63.71875 179 C 63.523438 179.328125 63.390625 179.722656 62.996094 179.855469 C 62.40625 179.921875 59.125 176.765625 59.253906 176.238281 C 59.320312 175.976562 59.515625 175.777344 59.648438 175.515625 C 66.871094 167.035156 74.027344 158.550781 80.988281 149.808594 C 81.1875 149.609375 81.316406 149.347656 81.515625 149.148438 C 82.5 147.835938 82.5 147.835938 83.617188 149.082031 C 84.074219 149.542969 84.011719 149.871094 83.683594 150.398438 C 79.808594 155.59375 76.066406 160.917969 72.453125 166.308594 C 69.5 170.519531 66.609375 174.792969 63.71875 179 Z M 70.8125 184.785156 C 70.679688 185.113281 70.550781 185.441406 70.089844 185.507812 C 69.957031 185.441406 69.761719 185.378906 69.5625 185.246094 C 68.316406 184.324219 67.070312 183.339844 65.753906 182.417969 C 65.03125 181.894531 65.425781 181.433594 65.753906 180.90625 C 68.183594 177.355469 70.679688 173.804688 73.109375 170.1875 C 77.179688 164.207031 81.316406 158.289062 85.125 152.175781 C 85.324219 151.84375 85.585938 151.253906 86.046875 151.714844 C 86.570312 152.238281 87.6875 152.503906 87.097656 153.621094 C 85.980469 155.726562 84.863281 157.894531 83.746094 160 C 80.265625 166.574219 76.851562 173.082031 73.371094 179.65625 C 72.585938 181.433594 71.730469 183.140625 70.8125 184.785156 Z M 79.152344 189.78125 C 79.019531 190.109375 79.019531 190.570312 78.496094 190.636719 C 78.363281 190.570312 78.230469 190.503906 78.101562 190.441406 C 76.457031 189.453125 74.75 188.46875 73.109375 187.480469 C 72.585938 187.21875 72.519531 186.824219 72.78125 186.296875 C 77.445312 177.421875 82.105469 168.480469 86.769531 159.605469 C 87.492188 158.222656 88.214844 156.90625 88.871094 155.527344 C 89.265625 154.738281 89.59375 154.671875 90.3125 155.199219 C 92.351562 156.710938 92.351562 156.710938 91.363281 159.078125 C 87.292969 169.398438 83.222656 179.589844 79.152344 189.78125 Z M 88.148438 193.660156 C 88.015625 194.121094 88.082031 194.714844 87.164062 194.714844 C 86.242188 194.320312 85.257812 193.925781 84.273438 193.464844 C 81.316406 192.148438 81.253906 192.148438 82.5 189.058594 C 86.375 179.132812 90.3125 169.269531 94.1875 159.339844 C 94.582031 158.355469 94.976562 158.289062 95.832031 158.75 C 97.996094 160 97.996094 159.933594 97.339844 162.101562 C 94.1875 172.753906 91.167969 183.207031 88.148438 193.660156 Z M 97.800781 196.421875 C 97.734375 196.75 97.667969 197.015625 97.601562 197.34375 C 97.539062 198 97.273438 198.066406 96.617188 197.933594 C 94.84375 197.410156 93.074219 196.882812 91.300781 196.355469 C 90.445312 196.09375 90.3125 195.699219 90.578125 194.84375 C 92.480469 188.269531 94.386719 181.628906 96.289062 174.988281 C 97.472656 170.78125 98.71875 166.574219 99.835938 162.367188 C 100.097656 161.378906 100.492188 161.183594 101.347656 161.640625 C 101.804688 161.90625 102.265625 162.035156 102.789062 162.234375 C 103.183594 162.363281 103.382812 162.5625 103.183594 163.21875 C 102.59375 166.703125 102.003906 170.386719 101.347656 174.070312 C 100.230469 181.5 99.046875 188.929688 97.800781 196.421875 Z M 105.15625 197.082031 C 104.828125 199.644531 104.761719 199.644531 102.265625 199.183594 C 101.871094 199.117188 101.410156 198.988281 101.019531 198.921875 C 100.359375 198.789062 99.96875 198.527344 100.164062 198 C 100.691406 194.648438 101.148438 191.558594 101.675781 188.402344 C 102.988281 180.316406 104.300781 172.226562 105.613281 164.140625 C 105.746094 163.21875 106.074219 163.21875 106.863281 163.417969 C 109.554688 164.207031 109.226562 163.417969 108.832031 166.507812 C 108.242188 171.371094 107.648438 176.304688 107.058594 181.167969 C 106.402344 186.429688 105.8125 191.753906 105.15625 197.082031 Z M 116.710938 171.175781 C 116.449219 178.277344 116.515625 186.035156 116.582031 193.726562 C 116.582031 195.632812 116.644531 197.539062 116.710938 199.382812 C 116.777344 200.300781 116.515625 200.632812 115.53125 200.632812 C 113.035156 200.632812 110.539062 200.238281 107.976562 200.105469 C 107.257812 200.039062 106.992188 199.710938 107.058594 198.921875 C 108.109375 190.242188 109.226562 181.5625 110.144531 172.886719 C 110.40625 170.320312 110.738281 167.757812 111 165.125 C 111.066406 164.402344 111.328125 164.273438 111.984375 164.402344 C 113.167969 164.601562 114.414062 164.863281 115.59375 164.796875 C 116.515625 164.730469 116.777344 165.125 116.710938 165.980469 C 116.644531 167.558594 116.710938 169.070312 116.710938 171.175781 Z M 118.683594 161.445312 C 94.648438 161.578125 74.949219 142.179688 74.949219 117.722656 C 74.949219 94.183594 92.546875 77.945312 108.699219 74.789062 C 124.328125 71.699219 138.449219 75.445312 149.9375 86.953125 C 158.34375 95.367188 162.613281 105.753906 162.546875 117.589844 C 162.480469 142.441406 142.320312 161.511719 118.683594 161.445312 Z M 126.757812 200.367188 C 124.722656 200.433594 122.753906 200.5 120.785156 200.632812 C 119.863281 200.695312 119.535156 200.433594 119.601562 199.449219 C 119.667969 194.976562 119.601562 190.503906 119.601562 186.101562 C 119.601562 186.101562 119.601562 186.101562 119.535156 186.101562 C 119.535156 182.351562 119.535156 178.605469 119.535156 174.859375 C 119.535156 171.964844 119.46875 169.007812 119.339844 166.113281 C 119.339844 165.390625 119.46875 164.996094 120.257812 165.0625 C 121.046875 165.0625 121.832031 164.996094 122.621094 164.863281 C 123.738281 164.667969 123.933594 165.257812 124.066406 166.179688 C 124.789062 173.871094 125.640625 181.5 126.628906 189.191406 C 127.023438 192.476562 127.414062 195.832031 127.808594 199.117188 C 127.941406 200.039062 127.613281 200.367188 126.757812 200.367188 Z M 133.980469 199.316406 C 133.128906 199.449219 132.273438 199.578125 131.421875 199.710938 C 129.910156 199.972656 129.910156 199.972656 129.714844 198.394531 C 128.730469 189.78125 127.808594 181.105469 126.824219 172.492188 C 126.5625 170.453125 126.300781 168.347656 126.035156 166.308594 C 125.773438 164.535156 125.773438 164.46875 127.546875 164.207031 C 127.941406 164.140625 128.335938 164.074219 128.730469 164.007812 C 129.453125 163.878906 129.386719 164.535156 129.453125 164.929688 C 129.910156 167.492188 130.238281 170.058594 130.699219 172.621094 C 132.078125 181.105469 133.457031 189.652344 134.835938 198.132812 C 134.902344 198.921875 134.769531 199.25 133.980469 199.316406 Z M 143.699219 196.949219 C 141.730469 197.476562 139.828125 198 137.921875 198.527344 C 137.332031 198.527344 137.332031 198.132812 137.265625 197.738281 C 136.347656 192.082031 135.425781 186.496094 134.441406 180.90625 C 133.523438 175.382812 132.601562 169.925781 131.683594 164.402344 C 131.550781 163.613281 131.75 163.285156 132.472656 163.023438 C 134.769531 162.300781 134.769531 162.234375 135.492188 164.601562 C 138.449219 174.921875 141.402344 185.246094 144.421875 195.570312 C 144.621094 196.355469 144.554688 196.75 143.699219 196.949219 Z M 153.023438 193.464844 C 151.515625 194.054688 149.9375 194.648438 148.429688 195.304688 C 147.574219 195.699219 147.246094 195.503906 146.984375 194.582031 C 145.472656 189.191406 143.898438 183.734375 142.320312 178.34375 C 140.8125 173.082031 139.300781 167.824219 137.726562 162.5625 C 137.460938 161.578125 137.527344 161.050781 138.578125 160.722656 C 139.234375 160.523438 139.890625 160.128906 140.417969 159.867188 C 141.074219 159.800781 141.074219 160.261719 141.207031 160.523438 C 144.09375 167.824219 146.984375 175.121094 149.808594 182.417969 C 151.054688 185.640625 152.304688 188.796875 153.617188 191.953125 C 153.878906 192.808594 153.746094 193.136719 153.023438 193.464844 Z M 162.21875 188.597656 C 160.640625 189.453125 159.066406 190.308594 157.492188 191.230469 C 156.703125 191.6875 156.375 191.558594 156.046875 190.703125 C 152.761719 182.289062 149.347656 173.871094 146 165.457031 C 145.144531 163.351562 144.355469 161.246094 143.503906 159.210938 C 143.175781 158.484375 143.371094 158.222656 143.964844 157.828125 C 146.328125 156.316406 146.328125 156.25 147.640625 158.816406 C 152.5 168.085938 157.292969 177.355469 162.152344 186.5625 C 162.414062 187.019531 162.613281 187.480469 162.808594 187.875 C 162.808594 188.335938 162.480469 188.46875 162.21875 188.597656 Z M 169.835938 183.46875 C 168.523438 184.390625 167.210938 185.3125 165.894531 186.296875 C 165.238281 186.824219 164.910156 186.5625 164.582031 185.902344 C 161.429688 179.855469 158.210938 173.738281 154.996094 167.691406 C 152.894531 163.746094 150.792969 159.734375 148.691406 155.789062 C 148.296875 155.066406 149.085938 153.488281 150.003906 153.359375 C 150.53125 153.292969 150.59375 153.816406 150.792969 154.082031 C 153.550781 158.15625 156.242188 162.300781 159 166.375 C 162.613281 171.636719 166.222656 176.894531 169.835938 182.15625 C 169.96875 182.351562 170.164062 182.617188 170.296875 182.746094 C 170.296875 183.207031 170.03125 183.339844 169.835938 183.46875 Z M 176.207031 178.144531 C 175.351562 178.933594 174.496094 179.65625 173.644531 180.445312 C 172.988281 181.105469 172.527344 181.105469 172.003906 180.25 C 169.246094 176.105469 166.421875 172.03125 163.597656 167.953125 C 160.050781 162.824219 156.441406 157.761719 152.894531 152.632812 C 151.972656 151.320312 151.972656 151.320312 153.15625 150.265625 C 153.617188 149.808594 153.878906 149.871094 154.273438 150.398438 C 157.03125 153.816406 159.855469 157.238281 162.679688 160.65625 C 167.144531 165.980469 171.609375 171.308594 176.140625 176.699219 C 176.335938 176.960938 176.664062 177.160156 176.730469 177.617188 C 176.535156 177.75 176.402344 177.949219 176.207031 178.144531 Z M 181.984375 172.226562 C 181.195312 173.148438 180.277344 174.003906 179.488281 174.859375 C 179.027344 175.316406 178.765625 175.316406 178.371094 174.792969 C 173.839844 169.398438 169.308594 164.007812 164.714844 158.683594 C 161.824219 155.332031 158.933594 152.042969 156.046875 148.691406 C 155.71875 148.359375 155.257812 148.03125 155.652344 147.507812 C 155.914062 147.175781 156.113281 146.71875 156.503906 146.585938 C 156.832031 146.585938 157.03125 146.847656 157.226562 146.980469 C 165.4375 154.148438 173.578125 161.246094 181.785156 168.414062 C 183.691406 170.253906 183.691406 170.253906 181.984375 172.226562 Z M 188.683594 163.746094 C 187.761719 164.863281 187.039062 166.046875 186.1875 167.164062 C 185.988281 167.429688 185.792969 167.757812 185.265625 167.824219 C 185.003906 167.625 184.675781 167.429688 184.347656 167.164062 C 180.933594 164.207031 177.453125 161.246094 174.039062 158.355469 C 169.046875 154.148438 164.058594 149.871094 159.066406 145.664062 C 157.949219 144.746094 157.949219 143.296875 159.199219 142.441406 C 159.65625 142.113281 159.921875 142.574219 160.183594 142.773438 C 163.992188 145.402344 167.800781 147.964844 171.542969 150.597656 C 177.125 154.410156 182.640625 158.222656 188.222656 161.972656 C 189.140625 162.496094 189.339844 162.890625 188.683594 163.746094 Z M 193.933594 154.804688 C 193.015625 156.449219 192.160156 158.15625 191.113281 159.734375 C 190.71875 160.328125 190.191406 159.800781 189.796875 159.539062 C 184.347656 155.921875 178.964844 152.238281 173.511719 148.625 C 169.507812 145.929688 165.566406 143.296875 161.496094 140.667969 C 160.707031 140.140625 160.578125 139.746094 161.035156 138.894531 C 162.285156 136.589844 162.21875 136.589844 164.582031 137.90625 C 174.039062 143.230469 183.429688 148.492188 192.882812 153.753906 C 193.277344 153.949219 193.804688 154.082031 193.933594 154.605469 C 194 154.671875 194 154.738281 193.933594 154.804688 Z M 198.136719 145.402344 C 197.351562 147.113281 196.691406 148.820312 196.035156 150.53125 C 195.640625 151.582031 195.117188 151.582031 194.261719 151.121094 C 190.453125 148.953125 186.582031 146.847656 182.707031 144.679688 C 176.664062 141.390625 170.625 138.039062 164.582031 134.816406 C 163.597656 134.289062 163.070312 133.832031 163.730469 132.710938 C 163.992188 132.253906 164.058594 131.726562 164.1875 131.265625 C 164.253906 131.003906 164.449219 130.804688 164.910156 130.871094 C 164.976562 130.871094 165.171875 131.003906 165.371094 131.070312 C 176.007812 135.605469 186.84375 139.746094 197.546875 144.019531 C 198.269531 144.285156 198.53125 144.480469 198.136719 145.402344 Z M 200.699219 137.445312 C 200.304688 138.5 200.042969 139.617188 199.714844 140.734375 C 199.582031 141.0625 199.515625 141.457031 199.058594 141.390625 C 198.597656 141.195312 198.136719 141.0625 197.613281 140.867188 C 187.105469 136.722656 176.664062 132.449219 166.027344 128.570312 C 165.632812 128.4375 165.042969 128.4375 165.042969 127.914062 C 165.109375 127.191406 165.171875 126.402344 165.566406 125.742188 C 165.765625 125.414062 166.160156 125.742188 166.421875 125.808594 C 175.089844 128.503906 183.757812 131.199219 192.492188 133.832031 C 194.984375 134.621094 197.480469 135.34375 199.976562 136.066406 C 200.699219 136.328125 200.960938 136.65625 200.699219 137.445312 Z M 202.601562 127.78125 C 202.207031 129.292969 202.011719 130.871094 201.816406 132.449219 C 201.683594 133.304688 201.355469 133.5 200.4375 133.238281 C 191.375 130.476562 182.378906 127.78125 173.316406 125.085938 C 171.148438 124.429688 168.917969 123.835938 166.75 123.246094 C 166.09375 123.046875 165.765625 122.785156 165.894531 122.191406 C 165.894531 121.929688 165.894531 121.734375 165.960938 121.601562 C 166.160156 120.089844 166.160156 120.089844 167.601562 120.351562 C 177.519531 122.324219 187.5 123.96875 197.414062 125.742188 C 198.859375 126.007812 200.304688 126.269531 201.683594 126.464844 C 202.472656 126.664062 202.800781 126.859375 202.601562 127.78125 Z M 203.457031 118.839844 C 203.390625 120.417969 203.257812 121.796875 203.195312 123.246094 C 203.128906 124.035156 202.800781 124.296875 201.945312 124.164062 C 191.175781 122.257812 180.34375 120.417969 169.574219 118.578125 C 168.980469 118.445312 168.324219 118.378906 167.734375 118.3125 C 166.222656 118.117188 165.828125 117.523438 166.160156 115.945312 C 166.289062 115.355469 166.683594 115.421875 167.078125 115.484375 C 170.296875 115.683594 173.511719 115.816406 176.730469 116.078125 C 178.636719 116.210938 180.472656 116.210938 182.378906 116.339844 C 186.777344 116.605469 191.242188 116.734375 195.707031 116.933594 C 197.808594 117 199.910156 117.261719 202.078125 117.261719 C 203.324219 117.195312 203.71875 117.789062 203.457031 118.839844 Z M 203.457031 118.839844 " fill-opacity="1" fill-rule="nonzero"/></g></g></g></g><g fill="#ffffff" fill-opacity="1"><g transform="translate(98.067156, 229.830273)"><g><path d="M 146.28125 -71.390625 C 146.28125 -67.671875 146.09375 -63.234375 145.71875 -58.078125 C 145.34375 -52.929688 144.785156 -47.007812 144.046875 -40.3125 C 142.660156 -27.25 141.066406 -16.945312 139.265625 -9.40625 C 139.796875 -9.613281 140.21875 -9.820312 140.53125 -10.03125 C 140.851562 -10.25 141.28125 -10.570312 141.8125 -11 C 142.445312 -11.632812 143.085938 -11.953125 143.734375 -11.953125 C 144.898438 -11.953125 145.484375 -11.523438 145.484375 -10.671875 C 145.484375 -10.035156 143.195312 -7.96875 138.625 -4.46875 L 137.671875 4.140625 C 137.566406 4.992188 137.300781 5.710938 136.875 6.296875 C 136.445312 6.878906 135.863281 7.488281 135.125 8.125 C 133.957031 8.976562 132.628906 9.5625 131.140625 9.875 C 130.398438 9.875 130.03125 8.972656 130.03125 7.171875 C 130.03125 6.003906 130.054688 4.675781 130.109375 3.1875 C 130.160156 1.695312 130.34375 0.0507812 130.65625 -1.75 C 119.289062 3.132812 109.304688 5.578125 100.703125 5.578125 C 95.078125 5.578125 84.929688 2.707031 70.265625 -3.03125 C 55.609375 -8.757812 46.367188 -11.625 42.546875 -11.625 C 33.941406 -11.625 25.390625 -10.085938 16.890625 -7.015625 C 13.492188 -5.734375 10.015625 -4.160156 6.453125 -2.296875 C 2.890625 -0.441406 -1.015625 1.8125 -5.265625 4.46875 L -25.5 17.53125 C -26.445312 18.0625 -28.039062 18.429688 -30.28125 18.640625 C -31.65625 18.640625 -32.34375 18.003906 -32.34375 16.734375 C -32.34375 16.734375 -30.378906 15.828125 -26.453125 14.015625 C -23.054688 12.210938 -18.859375 9.640625 -13.859375 6.296875 C -8.867188 2.953125 -3.023438 -1.320312 3.671875 -6.53125 C 7.492188 -9.394531 12.484375 -13.695312 18.640625 -19.4375 C 24.804688 -25.175781 32.242188 -32.347656 40.953125 -40.953125 C 49.234375 -49.234375 56.71875 -56.851562 63.40625 -63.8125 C 70.101562 -70.769531 76.160156 -77.28125 81.578125 -83.34375 C 94.648438 -98.207031 107.769531 -105.640625 120.9375 -105.640625 C 130.601562 -105.640625 137.5625 -101.5 141.8125 -93.21875 C 143.300781 -90.457031 144.390625 -87.269531 145.078125 -83.65625 C 145.773438 -80.039062 146.175781 -75.953125 146.28125 -71.390625 Z M 137.984375 -68.046875 C 137.984375 -89.390625 131.132812 -100.0625 117.4375 -100.0625 C 109.257812 -100.0625 100.28125 -95.816406 90.5 -87.328125 C 88.800781 -85.941406 79.457031 -76.59375 62.46875 -59.28125 L 34.734375 -30.90625 C 29.847656 -26.132812 24.90625 -21.539062 19.90625 -17.125 C 14.914062 -12.71875 9.875 -8.5 4.78125 -4.46875 C 9.988281 -6.695312 14.265625 -8.5 17.609375 -9.875 C 20.953125 -11.257812 23.421875 -12.21875 25.015625 -12.75 C 30.535156 -14.34375 37.015625 -15.140625 44.453125 -15.140625 C 48.390625 -15.140625 53.359375 -14.5 59.359375 -13.21875 C 65.359375 -11.945312 72.445312 -9.878906 80.625 -7.015625 C 88.800781 -4.460938 95.09375 -2.546875 99.5 -1.265625 C 103.914062 0.00390625 106.546875 0.742188 107.390625 0.953125 C 111.328125 0.953125 115.84375 0.0507812 120.9375 -1.75 C 122.75 -2.382812 124.503906 -3.046875 126.203125 -3.734375 C 127.898438 -4.429688 129.648438 -5.207031 131.453125 -6.0625 L 135.59375 -39.828125 C 137.1875 -53.210938 137.984375 -62.617188 137.984375 -68.046875 Z M 137.984375 -68.046875 "/></g></g></g></svg>